<svg xmlns="http://www.w3.org/2000/svg" viewBox="0 0 24 24"><g data-name="Layer 2"><path d="M21,8.69141a1.25116,1.25116,0,0,1-1.25-1.25V4.25H16.55811a1.25,1.25,0,0,1,0-2.5H21A1.25116,1.25116,0,0,1,22.25,3V7.44141A1.25116,1.25116,0,0,1,21,8.69141Z"/><path d="M12.85693,12.39355a1.25,1.25,0,0,1-.88379-2.13378l8.14307-8.14356a1.24987,1.24987,0,1,1,1.76758,1.76758l-8.14307,8.14355A1.24094,1.24094,0,0,1,12.85693,12.39355Z"/><path d="M11.376,22.25a9.624,9.624,0,0,1-.03321-19.248c.13135,0,.2627.00293.39453.00782a1.252,1.252,0,0,1-.00537,2.502l-.34961-.00879A7.12062,7.12062,0,0,0,6.33789,17.66211,7.12146,7.12146,0,0,0,18.49268,12.3623a1.25127,1.25127,0,0,1,1.1997-1.29882h.00684a1.25835,1.25835,0,0,1,1.2915,1.19922A9.621,9.621,0,0,1,11.376,22.25Z"/></g></svg>