<svg xmlns="http://www.w3.org/2000/svg" enable-background="new 0 0 100 100" viewBox="0 0 100 100"><path fill="#0056d3" d="M48.319 90.333c-.928 0-1.68-.752-1.68-1.681 0-.928.752-1.68 1.68-1.68 12.201 0 23.61-6.016 30.516-16.094.525-.764 1.57-.961 2.337-.436.764.524.96 1.571.437 2.336C74.074 83.771 61.629 90.333 48.319 90.333zM19.775 29.852c-.327 0-.658-.095-.948-.294-.766-.525-.961-1.571-.436-2.336 7.535-10.992 19.98-17.555 33.29-17.555.928 0 1.68.753 1.68 1.681 0 .928-.752 1.68-1.68 1.68-12.202 0-23.609 6.017-30.518 16.094C20.837 29.597 20.312 29.852 19.775 29.852z"/><path fill="#0056d3" d="M80.25 81.93c-.929 0-1.681-.752-1.681-1.681v-6.353l-6.392 1.278c-.922.185-1.797-.409-1.978-1.318-.182-.91.409-1.795 1.318-1.977L79.92 70.2c.497-.098 1.008.03 1.395.348.389.319.616.796.616 1.3v8.402C81.93 81.178 81.179 81.93 80.25 81.93zM19.75 29.833c-.385 0-.762-.132-1.065-.381-.389-.319-.615-.796-.615-1.3V19.75c0-.928.753-1.681 1.681-1.681.928 0 1.681.752 1.681 1.681v6.353l6.392-1.279c.912-.185 1.795.408 1.978 1.318.182.91-.408 1.796-1.318 1.978L20.08 29.8C19.97 29.823 19.86 29.833 19.75 29.833z"/><path fill="#a8ffa8" d="M58.403,38.236v-3.361c0-3.713,3.01-6.723,6.722-6.723h13.444c3.713,0,6.723,3.01,6.723,6.723
					v3.361H58.403z"/><path fill="#04b46f" d="M85.292,39.917c-0.929,0-1.681-0.752-1.681-1.68v-3.361c0-2.78-2.262-5.042-5.042-5.042H65.125
					c-2.78,0-5.042,2.262-5.042,5.042v3.361c0,0.928-0.751,1.68-1.68,1.68s-1.681-0.752-1.681-1.68v-3.361
					c0-4.633,3.77-8.403,8.403-8.403h13.444c4.633,0,8.403,3.77,8.403,8.403v3.361C86.972,39.164,86.22,39.917,85.292,39.917z"/><path fill="#fff" d="M77.729,21.429c0,3.712-2.634,6.722-5.882,6.722s-5.882-3.01-5.882-6.722
					s2.633-6.723,5.882-6.723S77.729,17.717,77.729,21.429z"/><path fill="#fdb021" d="M71.847,29.832c-4.17,0-7.563-3.77-7.563-8.403c0-4.633,3.392-8.402,7.563-8.402
					s7.563,3.77,7.563,8.402C79.41,26.062,76.017,29.832,71.847,29.832z M71.847,16.388c-2.317,0-4.201,2.261-4.201,5.041
					c0,2.78,1.884,5.042,4.201,5.042c2.317,0,4.201-2.262,4.201-5.042C76.049,18.649,74.164,16.388,71.847,16.388z"/><path fill="#d4bbf1" d="M14.708,85.292V81.93c0-3.712,3.009-6.722,6.723-6.722h13.444c3.713,0,6.722,3.01,6.722,6.722
					v3.361H14.708z"/><path fill="#943ece" d="M41.597,86.972c-0.928,0-1.68-0.752-1.68-1.681V81.93c0-2.78-2.262-5.042-5.042-5.042H21.431
					c-2.78,0-5.042,2.262-5.042,5.042v3.361c0,0.928-0.752,1.681-1.681,1.681c-0.928,0-1.68-0.752-1.68-1.681V81.93
					c0-4.633,3.77-8.403,8.403-8.403h13.444c4.633,0,8.403,3.77,8.403,8.403v3.361C43.278,86.22,42.526,86.972,41.597,86.972z"/><path fill="#fff" d="M34.035,68.485c0,3.712-2.633,6.722-5.882,6.722c-3.249,0-5.882-3.01-5.882-6.722
					c0-3.713,2.633-6.722,5.882-6.722C31.401,61.763,34.035,64.772,34.035,68.485z"/><path fill="#fdb021" d="M28.153,76.888c-4.17,0-7.563-3.77-7.563-8.403c0-4.633,3.392-8.403,7.563-8.403
					s7.563,3.77,7.563,8.403C35.715,73.117,32.323,76.888,28.153,76.888z M28.153,63.443c-2.317,0-4.201,2.262-4.201,5.042
					c0,2.78,1.885,5.041,4.201,5.041s4.201-2.261,4.201-5.041C32.354,65.704,30.469,63.443,28.153,63.443z"/><path fill="#16b2f9" d="M88.653 46.639h-1.681c-.924 0-1.68-.756-1.68-1.68 0-.924.756-1.681 1.68-1.681h1.681c.924 0 1.68.756 1.68 1.681C90.333 45.882 89.577 46.639 88.653 46.639zM80.25 46.639c-.924 0-1.681-.756-1.681-1.68 0-.924.757-1.681 1.681-1.681s1.68.756 1.68 1.681C81.93 45.882 81.174 46.639 80.25 46.639zM73.528 46.639H56.722c-.924 0-1.68-.756-1.68-1.68 0-.924.756-1.681 1.68-1.681h16.806c.924 0 1.68.756 1.68 1.681C75.208 45.882 74.452 46.639 73.528 46.639zM88.653 53.361H71.847c-.924 0-1.68-.757-1.68-1.681 0-.924.756-1.68 1.68-1.68h16.806c.924 0 1.68.756 1.68 1.68C90.333 52.604 89.577 53.361 88.653 53.361zM65.125 53.361c-.924 0-1.681-.757-1.681-1.681 0-.924.757-1.68 1.681-1.68s1.68.756 1.68 1.68C66.805 52.604 66.049 53.361 65.125 53.361zM58.403 53.361h-1.681c-.924 0-1.68-.757-1.68-1.681 0-.924.756-1.68 1.68-1.68h1.681c.924 0 1.68.756 1.68 1.68C60.083 52.604 59.327 53.361 58.403 53.361zM88.653 60.083H56.722c-.929 0-1.68-.752-1.68-1.681 0-.928.751-1.68 1.68-1.68h31.931c.929 0 1.68.752 1.68 1.68C90.333 59.331 89.582 60.083 88.653 60.083zM76.889 66.805H56.722c-.929 0-1.68-.752-1.68-1.68 0-.928.751-1.681 1.68-1.681h20.167c.929 0 1.68.752 1.68 1.681C78.569 66.053 77.818 66.805 76.889 66.805zM41.597 36.556h-30.25c-.928 0-1.68-.752-1.68-1.68 0-.928.752-1.681 1.68-1.681h30.25c.928 0 1.681.752 1.681 1.681C43.278 35.803 42.526 36.556 41.597 36.556zM41.597 43.278h-8.403c-.924 0-1.68-.756-1.68-1.68 0-.925.756-1.681 1.68-1.681h8.403c.924 0 1.681.756 1.681 1.681C43.278 42.521 42.521 43.278 41.597 43.278zM26.472 43.278c-.924 0-1.68-.756-1.68-1.68 0-.925.756-1.681 1.68-1.681.924 0 1.681.756 1.681 1.681C28.153 42.521 27.396 43.278 26.472 43.278zM19.75 43.278h-8.403c-.925 0-1.68-.756-1.68-1.68 0-.925.756-1.681 1.68-1.681h8.403c.924 0 1.681.756 1.681 1.681C21.431 42.521 20.674 43.278 19.75 43.278zM41.597 50h-30.25c-.928 0-1.68-.753-1.68-1.681 0-.928.752-1.681 1.68-1.681h30.25c.928 0 1.681.753 1.681 1.681C43.278 49.247 42.526 50 41.597 50zM26.472 56.722H11.347c-.928 0-1.68-.752-1.68-1.681 0-.928.752-1.68 1.68-1.68h15.125c.928 0 1.681.752 1.681 1.68C28.153 55.97 27.4 56.722 26.472 56.722z"/></svg>