<svg xmlns="http://www.w3.org/2000/svg" enable-background="new 0 0 64 64" viewBox="0 0 64 64"><path fill="#64b5f6" d="M63.499,37.998C63.498,31.095,57.901,25.5,50.998,25.5h-0.002c-6.047,0-11.091,4.294-12.249,10h3.661
				c-0.088-0.552,0.006-1.133,0.301-1.644l0.988-1.712c0.596-1.032,1.837-1.501,2.966-1.12l0.234,0.079
				c0.198-0.128,0.402-0.247,0.611-0.355l0.048-0.239c0.234-1.168,1.259-2.009,2.45-2.009h1.981c1.193,0,2.219,0.842,2.452,2.012
				l0.047,0.236c0.208,0.108,0.412,0.228,0.61,0.355l0.226-0.077c1.131-0.384,2.377,0.084,2.974,1.119l0.985,1.706
				c0.597,1.033,0.382,2.344-0.513,3.134l-0.182,0.16c0.006,0.118,0.009,0.236,0.009,0.354c0,0.117-0.003,0.235-0.009,0.354
				l0.184,0.162c0.895,0.785,1.111,2.093,0.515,3.125l-0.992,1.718c-0.596,1.033-1.84,1.501-2.969,1.117l-0.231-0.078
				c-0.198,0.128-0.401,0.246-0.61,0.354l-0.047,0.236c-0.233,1.17-1.259,2.013-2.452,2.013h-1.98c-1.192,0-2.217-0.841-2.451-2.009
				l-0.048-0.24c-0.208-0.108-0.412-0.227-0.61-0.354l-0.234,0.079c-1.129,0.382-2.371-0.086-2.966-1.118l-0.99-1.715
				c-0.294-0.51-0.389-1.091-0.301-1.643H38.15l-3.068,4.431c-0.459,0.663,0.016,1.569,0.822,1.569h3.592v4.154
				c0,2.753,2.168,5.206,4.921,5.135c1.693-0.043,3.08,1.316,3.08,3V60h10c0,0,0-3.155-0.001-5.502c0-1.574,0.739-3.052,2.015-4.009
				l0.007-0.005c2.508-1.884,3.983-4.838,3.982-7.975L63.499,37.998z"/><path fill="#37474f" d="M63.999 37.998C63.998 30.831 58.165 25 50.996 25c-6.158 0-11.516 4.374-12.739 10.4-.055.271.12.535.391.59.274.057.534-.12.59-.391 1.129-5.562 6.075-9.6 11.761-9.6 6.616 0 12 5.383 12.001 11.998L63 42.51c.001 2.963-1.413 5.795-3.789 7.579-1.409 1.057-2.216 2.663-2.215 4.409V60c0 .276.224.5.5.5s.5-.224.5-.5v-5.502c-.001-1.428.66-2.743 1.822-3.614 2.619-1.968 4.183-5.099 4.182-8.374L63.999 37.998zM44.496 54.287c-2.481 0-4.5-2.019-4.5-4.5V45.5c0-.276-.224-.5-.5-.5h-3.592c-.189 0-.354-.101-.442-.268-.042-.081-.124-.292.032-.518l3.067-4.431c.157-.227.101-.538-.127-.695-.225-.159-.539-.102-.695.127l-3.067 4.43c-.319.46-.355 1.055-.097 1.55.26.496.77.805 1.329.805h3.092v3.787c0 3.032 2.468 5.5 5.5 5.5 1.379 0 2.501 1.122 2.501 2.501V60c0 .276.224.5.5.5s.5-.224.5-.5v-2.212C47.997 55.857 46.427 54.287 44.496 54.287zM29.329 43.646l-3.325-4.803V38c0-7.168-5.832-13-13.002-13-7.167 0-12.999 5.831-13 12.998L0 42.509c0 3.28 1.565 6.413 4.189 8.381 1.153.865 1.815 2.181 1.814 3.608l0 5.502h1l0-5.502c0-1.746-.807-3.353-2.215-4.409C2.416 48.31 1 45.476 1 42.509l.001-4.511C1.002 31.383 6.386 26 13.004 26c6.617 0 12 5.383 12 12v1c0 .102.031.201.089.284l3.414 4.931c.108.156.12.35.032.518C28.496 44.812 28.368 45 28.095 45h-3.591c-.276 0-.5.224-.5.5v4.287c0 2.481-2.019 4.5-4.5 4.5-1.93 0-3.5 1.57-3.5 3.501V60c0 .276.224.5.5.5s.5-.224.5-.5v-2.212c0-1.379 1.122-2.501 2.5-2.501 3.033 0 5.5-2.468 5.5-5.5V46h3.091c.56 0 1.069-.308 1.329-.804S29.647 44.106 29.329 43.646z"/><path fill="#37474f" d="M12.207,37.5l1.646-1.646c0.195-0.195,0.195-0.512,0-0.707s-0.512-0.195-0.707,0l-2,2
				c-0.195,0.195-0.195,0.512,0,0.707l2,2C13.244,39.951,13.372,40,13.5,40s0.256-0.049,0.354-0.146
				c0.195-0.195,0.195-0.512,0-0.707L12.207,37.5z"/><path fill="#ffca28" d="M30.716,9.114c-1.908,0.4-3.437,1.958-3.816,3.87c-0.336,1.696,0.191,3.262,1.214,4.372
				c0.725,0.786,1.185,1.778,1.185,2.847V20.5h5v-0.296c0-1.075,0.47-2.068,1.196-2.861c0.808-0.882,1.304-2.051,1.304-3.343
				C36.799,10.885,33.95,8.436,30.716,9.114z"/><path fill="#37474f" d="M35.264,9.729c-1.294-1.049-2.988-1.452-4.65-1.104c-2.096,0.438-3.786,2.151-4.204,4.262
						c-0.348,1.756,0.139,3.509,1.336,4.808c0.679,0.736,1.053,1.628,1.053,2.509V20.5c0,0.276,0.224,0.5,0.5,0.5h5
						c0.276,0,0.5-0.224,0.5-0.5v-0.295c0-1.125,0.579-1.993,1.065-2.523c0.925-1.012,1.435-2.319,1.435-3.682
						C37.299,12.336,36.557,10.779,35.264,9.729z M35.126,17.006c-0.816,0.892-1.271,1.923-1.322,2.994h-4.01
						c-0.052-1.064-0.514-2.117-1.312-2.983c-0.979-1.062-1.376-2.496-1.091-3.936c0.342-1.723,1.72-3.119,3.429-3.478
						c1.367-0.284,2.756,0.041,3.814,0.901c1.059,0.859,1.666,2.134,1.666,3.495C36.299,15.112,35.883,16.18,35.126,17.006z"/><path fill="#37474f" d="M34.299,20h-5c-0.276,0-0.5,0.224-0.5,0.5V23c0,1.654,1.346,3,3,3c1.655,0,3-1.346,3-3v-2.5
							C34.799,20.224,34.575,20,34.299,20z M33.799,23c0,1.103-0.897,2-2,2s-2-0.897-2-2v-2h4V23z"/><path fill="#37474f" d="M34.299 22.5h-5c-.276 0-.5.224-.5.5s.224.5.5.5h5c.276 0 .5-.224.5-.5S34.575 22.5 34.299 22.5zM31.798 3.5c-.276 0-.5.224-.5.5v2c0 .276.224.5.5.5s.5-.224.5-.5V4C32.298 3.724 32.075 3.5 31.798 3.5zM27.152 7.354l-1.414-1.414c-.195-.195-.512-.195-.707 0s-.195.512 0 .707l1.414 1.414c.098.098.226.146.354.146s.256-.049.354-.146C27.347 7.865 27.347 7.549 27.152 7.354zM38.566 5.939c-.195-.195-.512-.195-.707 0l-1.414 1.414c-.195.195-.195.512 0 .707.098.098.226.146.354.146s.256-.049.354-.146l1.414-1.414C38.762 6.451 38.762 6.135 38.566 5.939zM31.798 15c-.276 0-.5.224-.5.5v5c0 .276.224.5.5.5s.5-.224.5-.5v-5C32.298 15.224 32.075 15 31.798 15z"/><path fill="#ef5350" d="M56.688,38.845l-0.226-0.13c0.087-0.392,0.136-0.797,0.136-1.215s-0.049-0.823-0.136-1.215l0.226-0.13
						l0.765-0.672c0.179-0.157,0.222-0.419,0.103-0.625l-0.99-1.715c-0.119-0.207-0.367-0.3-0.593-0.224l-0.964,0.326l-0.229,0.132
						c-0.597-0.548-1.309-0.971-2.101-1.22V31.9l-0.2-0.998c-0.047-0.234-0.252-0.402-0.49-0.402h-1.98
						c-0.238,0-0.444,0.168-0.49,0.402l-0.2,0.998v0.257c-0.792,0.249-1.504,0.673-2.101,1.22l-0.229-0.132l-0.964-0.326
						c-0.226-0.076-0.474,0.017-0.593,0.224l-0.99,1.715c-0.119,0.207-0.076,0.468,0.103,0.625l0.765,0.672l0.226,0.13
						c-0.087,0.392-0.136,0.797-0.136,1.215s0.049,0.823,0.136,1.215l-0.226,0.13l-0.764,0.672
						c-0.179,0.157-0.222,0.419-0.103,0.625l0.99,1.715c0.119,0.207,0.367,0.3,0.593,0.224l0.964-0.326l0.229-0.133
						c0.597,0.548,1.309,0.971,2.101,1.22V43.1l0.2,0.998c0.047,0.234,0.252,0.402,0.49,0.402h1.98c0.238,0,0.444-0.168,0.49-0.402
						l0.2-0.998v-0.258c0.792-0.249,1.504-0.672,2.101-1.22l0.229,0.133l0.964,0.326c0.226,0.076,0.474-0.017,0.593-0.224
						l0.99-1.715c0.119-0.207,0.076-0.468-0.103-0.625L56.688,38.845z M50.998,40.86c-1.856,0-3.36-1.504-3.36-3.36
						s1.504-3.36,3.36-3.36c1.856,0,3.36,1.504,3.36,3.36S52.854,40.86,50.998,40.86z"/><path fill="#37474f" d="M57.782,39.141l-0.764-0.671c0,0,0,0-0.001,0c0.054-0.324,0.08-0.649,0.08-0.97s-0.026-0.646-0.08-0.97
						l0.764-0.671c0.358-0.313,0.445-0.84,0.207-1.252l-0.99-1.715c-0.236-0.411-0.74-0.599-1.187-0.447l-0.96,0.334
						c-0.512-0.421-1.076-0.749-1.685-0.981l-0.198-0.993C52.876,30.338,52.463,30,51.988,30h-1.98c-0.475,0-0.888,0.338-0.98,0.805
						l-0.188,0.99c-0.609,0.23-1.175,0.559-1.688,0.979l-0.967-0.328c-0.448-0.15-0.949,0.036-1.187,0.447l-0.99,1.715
						c-0.238,0.411-0.151,0.938,0.206,1.252l0.766,0.661c-0.054,0.327-0.081,0.656-0.081,0.979c0,0.32,0.026,0.646,0.08,0.971
						l-0.766,0.672c-0.356,0.314-0.442,0.841-0.205,1.25l0.99,1.715c0.237,0.411,0.737,0.597,1.187,0.447l0.96-0.334
						c0.512,0.421,1.076,0.749,1.685,0.981l0.198,0.993C49.12,44.662,49.533,45,50.008,45h1.98c0.475,0,0.888-0.338,0.98-0.805
						l0.189-0.99c0.608-0.23,1.174-0.559,1.687-0.979l0.968,0.328c0.448,0.149,0.949-0.035,1.186-0.447l0.99-1.715
						C58.227,39.981,58.14,39.456,57.782,39.141z M56.132,41.607l-0.875-0.286l-0.229-0.132c-0.188-0.108-0.426-0.083-0.587,0.065
						c-0.562,0.515-1.205,0.889-1.913,1.111c-0.208,0.065-0.35,0.258-0.35,0.477l0.01,0.16L51.988,44h-1.98l-0.189-0.899v-0.258
						c0-0.219-0.142-0.411-0.35-0.477c-0.708-0.223-1.352-0.597-1.913-1.111c-0.095-0.087-0.216-0.132-0.338-0.132
						c-0.086,0-0.172,0.021-0.249,0.066l-1.105,0.418l-0.989-1.715l0.686-0.614l0.226-0.131c0.188-0.109,0.284-0.328,0.237-0.541
						c-0.082-0.37-0.124-0.742-0.124-1.106s0.042-0.736,0.124-1.106c0.047-0.213-0.05-0.433-0.239-0.542l-0.91-0.744l0.991-1.715
						l0.875,0.286l0.229,0.132c0.188,0.109,0.426,0.083,0.587-0.065c0.562-0.515,1.205-0.889,1.913-1.111
						c0.208-0.065,0.35-0.258,0.35-0.477l-0.01-0.159L50.008,31h1.98l0.189,0.9v0.257c0,0.219,0.142,0.411,0.35,0.477
						c0.708,0.223,1.352,0.597,1.913,1.111c0.161,0.148,0.4,0.175,0.587,0.065l1.105-0.418l0.989,1.715l-0.684,0.614l-0.226,0.13
						c-0.189,0.109-0.286,0.329-0.239,0.542c0.082,0.37,0.124,0.742,0.124,1.106s-0.042,0.736-0.124,1.106
						c-0.047,0.213,0.049,0.433,0.238,0.541l0.911,0.745L56.132,41.607z M50.998,33.64c-2.129,0-3.86,1.731-3.86,3.86
						s1.731,3.86,3.86,3.86s3.86-1.731,3.86-3.86S53.127,33.64,50.998,33.64z M50.998,40.36c-1.577,0-2.86-1.283-2.86-2.86
						s1.283-2.86,2.86-2.86s2.86,1.283,2.86,2.86S52.575,40.36,50.998,40.36z"/><path fill="#37474f" d="M50.998 37H11.502c-.276 0-.5.224-.5.5s.224.5.5.5h39.496c.276 0 .5-.224.5-.5S51.274 37 50.998 37zM7.543 31.629c-.2-.19-.517-.184-.707.018-.46.484-.864 1.023-1.199 1.604-.139.238-.057.545.182.683C5.899 33.979 5.985 34 6.07 34c.173 0 .341-.09.433-.25.296-.511.652-.987 1.058-1.414C7.751 32.136 7.743 31.819 7.543 31.629z"/><path fill="#37474f" d="M13,29c-1.44,0-2.865,0.367-4.119,1.062c-0.241,0.134-0.329,0.438-0.195,0.68
				c0.134,0.242,0.437,0.327,0.68,0.195C10.472,30.324,11.729,30,13,30c4.136,0,7.5,3.364,7.5,7.5S17.136,45,13,45
				s-7.5-3.364-7.5-7.5c0-0.637,0.08-1.268,0.237-1.876c0.069-0.268-0.092-0.54-0.359-0.609c-0.269-0.068-0.54,0.092-0.609,0.359
				C4.59,36.064,4.5,36.779,4.5,37.5c0,4.687,3.813,8.5,8.5,8.5s8.5-3.813,8.5-8.5S17.687,29,13,29z"/></svg>