<svg xmlns="http://www.w3.org/2000/svg" viewBox="0 0 340 340"><path fill="#7e7ebc" d="M153.552 262.043a10.787 10.787 0 0 1 .849-1.735 17.052 17.052 0 0 1 24.434-5.263l4.429 3.542a11.478 11.478 0 0 0 8.425 2.444l22.271-2.452s9.121 28.375 9.661 28.528c.473.134-19.243 3.076-35.647 2.478a21.393 21.393 0 0 1-12.264-4.479c-6.132-4.727-15.99-13.215-22.158-23.063Z"/><path fill="#3d4165" d="M264.5 168.749a8.492 8.492 0 0 1 8.488 8.257c.3 10.578 1.3 29.077 4.644 41.914l-18.775.769s-4.968-25.763-2.792-43.456a8.506 8.506 0 0 1 8.435-7.484Z"/><path fill="#7e7ebc" d="M228.777 157.49c.161-.023.323-.044.486-.065a9.738 9.738 0 0 1 9.644 4.846c6.385 11.191 21.848 38.836 27.982 54.648l-23.728 9.388s-12.1-34.588-21.652-55.1a9.689 9.689 0 0 1 7.268-13.717Z"/><path fill="#7e7ebc" d="M183.034 166.857q.25-.189.512-.376a12.7 12.7 0 0 1 16.352 1.273c10.566 10.452 32.141 32.83 46.649 54.867l-19.813 17.327s-31.487-33.112-46.5-56.15a12.6 12.6 0 0 1 2.8-16.941Z"/><path fill="#3d4165" d="m322.306 320.436 8.422-8.767a4.885 4.885 0 0 0 .008-6.76l-25.493-26.663-10.313 13.423Z"/><path fill="#b6b6ec" d="m284.054 303.185 25.546 23.569a4.886 4.886 0 0 0 6.835-.206l5.871-6.112-27.376-28.767Z"/><path fill="#ffcad4" d="m163.112 124.823-36.078-35.188a31.633 31.633 0 0 0 9.465 5.779 19.672 19.672 0 0 0 21.257-4.564A5.237 5.237 0 0 0 158 83.9a225.841 225.841 0 0 0-34.5-34 39.763 39.763 0 0 0-24.251-8.58l-4.56-.054A26.71 26.71 0 0 1 75.8 33.123L53.446 10 10 48.493l15 15.019a45.683 45.683 0 0 1 12.755 24.909L41.07 108.7c8.86 28.133 34.076 50.218 50.1 61.928a19.6 19.6 0 0 0 25.285-1.879l1.394-1.369A17.3 17.3 0 0 0 139.9 165l2.342-2.429 2.049 1.856a11.676 11.676 0 0 0 15.639.031 11.179 11.179 0 0 0-.179-16.193l-.3-.279 4.2-4.59a13.353 13.353 0 0 0-.539-18.573Z"/><path fill="#ef91a3" d="m127.034 89.635-4.434-4.584a10.263 10.263 0 0 0-8.7-3.045c-12.272 1.606-20.108-1.577-24.43-4.4a1.234 1.234 0 0 0-1.723 1.7c3.613 5.5 11.9 12.63 29.559 7.649Z"/><path fill="#3d4165" d="M215.922 251.727s-9.824 11.915-3.215 27.151c6.43 14.827 24.115 12.683 24.115 12.683s-7.145-29.652-20.9-39.834zm50.967 50.519s17.411 10.9 33.635-5.109c16.165-15.954 2.448-37.063 2.448-37.063z"/><path fill="#ef91a3" d="M161.9 145.485c-11.817-11.617-36.418-32.9-44.688-40.005a3.491 3.491 0 0 0-5.5-4.151c-13.082 12.356-30.137 29.948-30.308 30.124a3.5 3.5 0 0 0-.177 4.674 286.729 286.729 0 0 0 34.394 33.958 3.5 3.5 0 1 0 4.445-5.408 286.1 286.1 0 0 1-31.4-30.643c2.111-2.16 5.559-5.673 9.591-9.723 6.889 6.551 26.8 25.589 41.469 40.694a3.5 3.5 0 0 0 5.021-4.877c-14.654-15.088-34.486-34.06-41.536-40.766a885.945 885.945 0 0 1 9.069-8.89c7.843 6.739 32.866 28.359 44.712 40.005a3.5 3.5 0 1 0 4.908-4.992Z"/><path fill="#3d4165" d="M191.176 261.062a11.473 11.473 0 0 1-7.017-1.829c-5.709 10.637-5.354 22.062-4.543 28.266a21.158 21.158 0 0 0 7.432 2.015c-.704-3.472-2.82-17.051 4.128-28.452Z"/><path fill="#b3b3da" d="M129.4 295.432a3.471 3.471 0 0 1-1.106-.181 131.937 131.937 0 0 1-90.271-124.3 3.5 3.5 0 0 1 3.476-3.525h.025a3.5 3.5 0 0 1 3.5 3.475 124.939 124.939 0 0 0 85.485 117.709 3.5 3.5 0 0 1-1.1 6.822zm30.052 6.117c-.095 0-.19 0-.287-.011a132.074 132.074 0 0 1-4.575-.452 3.5 3.5 0 0 1 .808-6.953c1.441.167 2.9.311 4.333.428a3.5 3.5 0 0 1-.279 6.988zm138.365-114.913q-.177 0-.357-.018a3.5 3.5 0 0 1-3.129-3.836 126.8 126.8 0 0 0 .646-12.782c0-58.054-41.062-109.353-97.635-121.977a3.5 3.5 0 1 1 1.525-6.832A132.026 132.026 0 0 1 301.977 170a134.329 134.329 0 0 1-.681 13.489 3.5 3.5 0 0 1-3.479 3.147zM155.489 45.834a3.5 3.5 0 0 1-.386-6.979q2.02-.226 4.062-.393a3.5 3.5 0 1 1 .566 6.977q-1.932.157-3.847.373a3.525 3.525 0 0 1-.395.022z"/><path fill="#3d4165" d="M228.314 198.473a36.446 36.446 0 0 0-23.453 17.975c1.7 1.979 2.949 3.826 5.825 4.783 3.393-5.325 9.9-14.79 22.717-16.544q-2.523-3.156-5.089-6.214zm-19.675-21.842c-11.53 3.889-17.715 12.831-20.531 18.29a329.833 329.833 0 0 0 4.849 6.264c.9-2.437 6.4-15.689 21.122-18.8a500.805 500.805 0 0 0-5.44-5.754zm38.477.318a1112.64 1112.64 0 0 0-3.9-7.054 31.536 31.536 0 0 0-18.848 7.674 423.353 423.353 0 0 1 2.918 6.892 24.367 24.367 0 0 1 19.83-7.512zm11.516 21.873a512.909 512.909 0 0 0-3.808-7.464 29.754 29.754 0 0 0-21.774 7.571c.96 2.484 1.886 4.915 2.761 7.238.675-.897 7.953-9.962 22.821-7.345z"/><path fill="#7e7ebc" d="M157.257 190.941q.341-.264.695-.525a11.586 11.586 0 0 1 13.885.1c7.264 5.535 20.324 15.6 33.024 25.931a20.4 20.4 0 0 0 5.825 4.783c6.567 5.444 12.769 10.782 17.7 15.387l-10.156 20.469s-24.427-12.686-61.78-48.8a11.519 11.519 0 0 1 .807-17.345Z"/><path fill="#3d4165" d="M204.861 216.448c-9.558 5.885-13.476 15.545-15 21.162a324.449 324.449 0 0 0 6.123 4.692c.469-2.718 3.261-15.537 14.706-21.071a890.156 890.156 0 0 0-5.829-4.783zm-21.594-17.135c-9.528 5.514-13.66 14.926-15.235 19.813q2.971 2.692 5.8 5.168a3.529 3.529 0 0 0 .229-.71c.028-.145 2.96-14.264 15.314-19.5-2.116-1.662-4.162-3.26-6.108-4.771z"/><path fill="#fff" d="M215.839 245.675c6.559-7.982 21.152-22.9 43.781-30.785 0 0 41.639 12.057 37.633 43.788-5.053 40.045-41.653 43.789-41.653 43.789l-17.4-5.677a12.848 12.848 0 0 1-8.5-9.091c-1.879-7.573-5.98-20.3-14.171-31.861a8.355 8.355 0 0 1 .31-10.163Z"/><circle cx="262.908" cy="284.06" r="3.981" fill="#3d4165"/><circle cx="276.444" cy="270.396" r="3.981" fill="#3d4165"/><path fill="#b8c0e5" d="M305.686 262.567a15.422 15.422 0 0 0-.386-15.167 134.223 134.223 0 0 0-25.136-30.477 16.543 16.543 0 0 0-15.664-3.587c-1.669.48-3.292 1-4.881 1.558a382.906 382.906 0 0 1 27.838 37.457 18.55 18.55 0 0 1 .232 20.02c-6.375 10.155-17.631 24.786-32.094 30.095l3.776 1.232a15.271 15.271 0 0 0 13.562-1.973c16.367-11.592 27.4-29.177 32.753-39.158Z"/><circle cx="289.554" cy="257.926" r="3.981" fill="#3d4165"/></svg>