<svg xmlns="http://www.w3.org/2000/svg" enable-background="new 0 0 4000 4000" viewBox="0 0 4000 4000"><path fill="#562e60" d="M927.7 3825.8c-3.8 0-7.7-1.1-11.2-3.3-63.8-41.2-126-86.6-184.8-135-8.8-7.3-10.1-20.3-2.8-29.1 7.3-8.8 20.3-10.1 29.1-2.8 57.6 47.4 118.4 91.9 180.9 132.2 9.6 6.2 12.3 19 6.2 28.6C941.1 3822.5 934.5 3825.8 927.7 3825.8zM578.5 3538.5c-5.4 0-10.8-2.1-14.9-6.3-40.2-41.6-79.1-85.5-115.8-130.7-11.4-14-22.7-28.3-33.7-42.6-7-9-5.3-22 3.8-29 9-7 22-5.3 29 3.8 10.8 14 21.9 28.1 33 41.8 35.9 44.2 74.1 87.3 113.4 128 7.9 8.2 7.7 21.3-.5 29.2C588.9 3536.6 583.7 3538.5 578.5 3538.5zM302.8 3180c-7 0-13.8-3.6-17.7-10-39.4-65.3-75.3-133.4-106.8-202.4-4.7-10.4-.2-22.6 10.2-27.4 10.4-4.7 22.6-.2 27.4 10.2 30.8 67.6 66 134.3 104.6 198.2 5.9 9.8 2.8 22.5-7 28.4C310.1 3179 306.5 3180 302.8 3180zM115.2 2768.5c-8.7 0-16.8-5.6-19.7-14.3-23.3-72.4-42.7-146.9-57.5-221.5-2.2-11.2 5-22.1 16.2-24.3 11.2-2.2 22.1 5 24.3 16.2 14.5 73.1 33.5 146 56.3 216.9 3.5 10.9-2.5 22.5-13.3 26C119.5 2768.2 117.4 2768.5 115.2 2768.5zM27.1 2325.1c-10.7 0-19.7-8.2-20.6-19C2.2 2252.6 0 2198.1 0 2144.2c0-22.2.4-44.7 1.1-66.9.4-11.4 9.9-20.3 21.3-20 11.4.4 20.3 9.9 20 21.3-.7 21.8-1.1 43.8-1.1 65.6 0 52.8 2.2 106.1 6.4 158.5.9 11.4-7.6 21.3-18.9 22.3C28.2 2325 27.7 2325.1 27.1 2325.1zM42 1873.1c-1 0-2-.1-3-.2-11.3-1.7-19.1-12.2-17.4-23.4 11.1-75.3 26.6-150.7 46.1-224.2 2.9-11 14.3-17.6 25.3-14.7 11 2.9 17.6 14.3 14.7 25.3-19.1 71.9-34.3 145.8-45.1 219.5C60.9 1865.7 52.1 1873.1 42 1873.1zM158.2 1436.1c-2.5 0-5.1-.5-7.6-1.4-10.6-4.2-15.8-16.2-11.7-26.8 27.8-70.8 60.1-140.7 95.8-207.8 5.4-10.1 17.9-13.9 28-8.5 10.1 5.4 13.9 17.9 8.5 28-35 65.7-66.6 134.2-93.8 203.5C174.3 1431.1 166.5 1436.1 158.2 1436.1zM370.8 1037c-4.1 0-8.1-1.2-11.7-3.7-9.4-6.5-11.7-19.4-5.3-28.8 43.2-62.5 90.5-123.2 140.6-180.5 7.5-8.6 20.6-9.5 29.2-1.9 8.6 7.5 9.5 20.6 1.9 29.2-49.1 56.1-95.4 115.5-137.7 176.7C383.8 1033.9 377.4 1037 370.8 1037zM668.7 696.8c-5.6 0-11.2-2.3-15.3-6.8-7.7-8.4-7.1-21.5 1.4-29.2 3.3-3 6.7-6 10-9.1 53.3-47.8 109.8-93.2 167.8-135 9.3-6.7 22.2-4.6 28.8 4.7 6.7 9.3 4.6 22.2-4.7 28.8-56.8 40.9-112.1 85.4-164.3 132.2-3.3 2.9-6.6 5.9-9.8 8.9C678.6 695 673.6 696.8 668.7 696.8zM1035.7 432.7c-7.2 0-14.3-3.8-18.1-10.6-5.6-10-2-22.6 8-28.1 66.4-37.1 135.7-70.8 205.8-100 10.5-4.4 22.6.6 27 11.1 4.4 10.5-.6 22.6-11.1 27-68.7 28.6-136.5 61.6-201.6 98C1042.6 431.8 1039.1 432.7 1035.7 432.7zM1453 258.7c-9 0-17.2-5.9-19.9-15-3.2-11 3.2-22.4 14.1-25.6 73.1-21 148.2-38 223.2-50.5 11.3-1.9 21.9 5.7 23.8 17 1.9 11.3-5.7 21.9-17 23.8-73.5 12.2-147 28.9-218.6 49.5C1456.8 258.4 1454.9 258.7 1453 258.7zM3705.6 3165.9c-3.6 0-7.2-.9-10.5-2.9-9.8-5.8-13.1-18.5-7.3-28.3 35.2-59.7 67.5-121.9 96.1-184.9 4.7-10.4 17-15 27.4-10.3 10.4 4.7 15 17 10.3 27.4-29.2 64.4-62.2 127.9-98.1 188.9C3719.6 3162.3 3712.7 3165.9 3705.6 3165.9zM3884.2 2767.7c-2.1 0-4.2-.3-6.3-1-10.9-3.5-16.8-15.1-13.4-26 22.8-70.8 41.7-143.8 56.2-216.9 2.2-11.2 13.1-18.5 24.3-16.2 11.2 2.2 18.5 13.1 16.2 24.3-14.9 74.6-34.2 149.2-57.4 221.5C3901.1 2762.1 3893 2767.7 3884.2 2767.7zM3972.5 2324.2c-.6 0-1.1 0-1.7-.1-11.4-.9-19.8-10.9-18.9-22.3 4.5-54 6.8-108.8 6.8-162.8 0-20.3-.3-41-1-61.3-.4-11.4 8.6-20.9 20-21.3 11.5-.3 20.9 8.6 21.3 20 .7 20.7 1 41.8 1 62.6 0 55.1-2.3 111-6.9 166.2C3992.2 2316 3983.2 2324.2 3972.5 2324.2zM3958.2 1872.3c-10.1 0-18.9-7.4-20.4-17.7-10.9-73.6-26.2-147.4-45.4-219.3-3-11 3.6-22.4 14.6-25.3 11-3 22.4 3.6 25.3 14.6 19.7 73.5 35.3 148.8 46.4 224 1.7 11.3-6.1 21.8-17.4 23.5C3960.3 1872.2 3959.2 1872.3 3958.2 1872.3zM3841.2 1435.7c-8.2 0-16-4.9-19.2-13.1-27.4-69.2-59.1-137.5-94.3-203.3-5.4-10.1-1.6-22.6 8.5-28 10.1-5.4 22.6-1.6 28 8.5 35.9 67.1 68.3 136.9 96.3 207.6 4.2 10.6-1 22.6-11.6 26.8C3846.3 1435.2 3843.7 1435.7 3841.2 1435.7zM3627.9 1037c-6.6 0-13-3.1-17-8.9-42.4-61.2-88.7-120.7-137.7-176.8-7.5-8.6-6.6-21.6 2-29.2 8.6-7.5 21.6-6.6 29.2 2 50.1 57.2 97.4 118 140.6 180.5 6.5 9.4 4.1 22.3-5.2 28.8C3636.1 1035.8 3632 1037 3627.9 1037z"/><circle cx="2000.1" cy="2140.5" r="1454.8" fill="#ccf297"/><path fill="#fff" d="M2915.5,1709.3v64.8c0,28.5-23.1,51.6-51.6,51.6h-983.3c-28.5,0-51.6-23.1-51.6-51.6V136.4
						c0-28.5,23.1-51.7,51.6-51.7h983.3c28.5,0,51.6,23.1,51.6,51.7V373V1709.3z"/><path fill="#562e60" d="M2863.9,1846.4h-983.3c-39.9,0-72.3-32.4-72.3-72.3V136.4c0-39.9,32.4-72.3,72.3-72.3h983.3
						c39.9,0,72.3,32.4,72.3,72.3v1637.7C2936.2,1814,2903.8,1846.4,2863.9,1846.4z M1880.6,105.4c-17.1,0-31,13.9-31,31v1637.7
						c0,17.1,13.9,31,31,31h983.3c17.1,0,31-13.9,31-31V136.4c0-17.1-13.9-31-31-31H1880.6z"/><path fill="#ff8f83" d="M2915.5,1774.1v-64.8v-61c-166.5,1.8-371.4,9.9-371.4,9.9h-715.1v115.9c0,28.5,23.1,51.6,51.6,51.6h983.3
						C2892.4,1825.8,2915.5,1802.6,2915.5,1774.1z"/><path fill="#562e60" d="M2863.9 1846.4h-983.3c-39.9 0-72.3-32.4-72.3-72.3v-115.9c0-11.4 9.3-20.7 20.7-20.7h714.7c10.4-.4 210.2-8.1 371.6-9.9.1 0 .1 0 .2 0 5.4 0 10.7 2.1 14.5 6 3.9 3.9 6.1 9.2 6.1 14.7v125.8C2936.2 1814 2903.8 1846.4 2863.9 1846.4zM1849.6 1678.8v95.3c0 17.1 13.9 31 31 31h983.3c17.1 0 31-13.9 31-31v-104.9c-160.2 2.2-348 9.5-350 9.6-.3 0-.5 0-.8 0L1849.6 1678.8 1849.6 1678.8zM2651.3 400.2h-357c-11.4 0-20.7-9.3-20.7-20.7 0-11.4 9.3-20.7 20.7-20.7h357c11.4 0 20.7 9.3 20.7 20.7C2672 390.9 2662.7 400.2 2651.3 400.2zM2611.9 521h-317.5c-11.4 0-20.7-9.3-20.7-20.7 0-11.4 9.3-20.7 20.7-20.7h317.5c11.4 0 20.7 9.3 20.7 20.7C2632.6 511.8 2623.3 521 2611.9 521zM2490.5 768.8h-196.2c-11.4 0-20.7-9.3-20.7-20.7 0-11.4 9.3-20.7 20.7-20.7h196.2c11.4 0 20.7 9.3 20.7 20.7C2511.2 759.6 2501.9 768.8 2490.5 768.8zM2490.5 889.7h-196.2c-11.4 0-20.7-9.3-20.7-20.7s9.3-20.7 20.7-20.7h196.2c11.4 0 20.7 9.3 20.7 20.7C2511.2 880.5 2501.9 889.7 2490.5 889.7zM2634.2 1141.6h-339.8c-11.4 0-20.7-9.3-20.7-20.7 0-11.4 9.3-20.7 20.7-20.7h339.8c11.4 0 20.7 9.3 20.7 20.7C2654.9 1132.3 2645.6 1141.6 2634.2 1141.6zM2634.2 1262.5h-339.8c-11.4 0-20.7-9.3-20.7-20.7 0-11.4 9.3-20.7 20.7-20.7h339.8c11.4 0 20.7 9.3 20.7 20.7C2654.9 1253.2 2645.6 1262.5 2634.2 1262.5z"/><path fill="#fff" d="M2979.6,1532.3h-279.8c-39.1,0-70.8-29.4-70.8-68.1c0-38.7,31.7-68.1,70.8-68.1h105.3
						c54.8-54.5,127.6-95.3,215.4-95.3c101.3,0,204.2,46.3,258.6,122.5v285.9h-639.8c-28.9,0-54.4-10.7-74.9-30.9l-199.2-197.2
						c-34-33.6-34-88.3,0-121.9c17-16.9,39.3-25.3,61.6-25.3c22.3,0,44.7,8.4,61.6,25.3l164.4,159.4L2979.6,1532.3z"/><path fill="#562e60" d="M3279.1,1730h-639.8c-34.1,0-65-12.8-89.4-36.9l-199.2-197.2c-20.4-20.2-31.6-47.1-31.6-75.7
						s11.2-55.5,31.6-75.7c20.3-20.2,47.3-31.3,76.2-31.3c28.8,0,55.8,11.1,76.1,31.3l106.8,103.5c7.7-41.7,44.4-72.5,90-72.5h96.9
						c65.4-62.4,142.6-95.3,223.8-95.3c110.4,0,218.5,51.5,275.4,131.2c2.5,3.5,3.9,7.7,3.9,12v285.9
						C3299.7,1720.7,3290.5,1730,3279.1,1730z M2426.9,1354.5c-17.8,0-34.5,6.9-47,19.3c-12.5,12.4-19.4,28.8-19.4,46.3
						s6.9,33.9,19.4,46.3l199.2,197.2c16.7,16.6,37,24.9,60.3,24.9h619.1v-258.4c-50.4-66.2-143-108.6-238-108.6
						c-91.7,0-159.8,48.5-200.8,89.3c-3.9,3.8-9.1,6-14.6,6h-105.3c-28.1,0-50.1,20.8-50.1,47.4c0,26.6,22,47.4,50.1,47.4h279.8
						c11.4,0,20.7,9.3,20.7,20.7c0,11.4-9.3,20.7-20.7,20.7h-279.8c-18.6,0-35.7-5.1-50-14c-4.1-0.6-8.1-2.5-11.3-5.6l-164.4-159.4
						c-0.1-0.1-0.1-0.1-0.2-0.2C2461.5,1361.4,2444.8,1354.5,2426.9,1354.5z"/><path fill="#fff" d="M3331.4,1778h44.8v-462.1h-44.8c-28.9,0-52.3,23.4-52.3,52.3v357.4C3279.1,1754.6,3302.5,1778,3331.4,1778
						z"/><path fill="#562e60" d="M3376.2,1798.7h-44.8c-40.3,0-73-32.8-73-73v-357.4c0-40.3,32.8-73,73-73h44.8c11.4,0,20.7,9.3,20.7,20.7
						V1778C3396.9,1789.4,3387.7,1798.7,3376.2,1798.7z M3331.4,1336.5c-17.5,0-31.7,14.2-31.7,31.7v357.4
						c0,17.5,14.2,31.7,31.7,31.7h24.1v-420.8H3331.4z"/><path fill="#88d875" d="M3564.5,1268.7h-144.2c-24.3,0-44,19.7-44,44v468.5c0,24.3,19.7,44,44,44h144.2V1268.7z"/><path fill="#562e60" d="M3564.5,1845.9h-144.2c-35.7,0-64.7-29-64.7-64.7v-468.5c0-35.7,29-64.7,64.7-64.7h144.2
						c11.4,0,20.7,9.3,20.7,20.7c0,11.4-9.3,20.7-20.7,20.7h-144.2c-12.9,0-23.4,10.5-23.4,23.4v468.5c0,12.9,10.5,23.4,23.4,23.4
						h144.2c11.4,0,20.7,9.3,20.7,20.7S3575.9,1845.9,3564.5,1845.9z"/><path fill="#ffd45a" d="M3339.2,797.4c0,234.4-190,424.4-424.4,424.4c-234.4,0-424.3-190-424.3-424.4
						c0-234.4,190-424.4,424.3-424.4C3149.2,373,3339.2,563,3339.2,797.4z"/><path fill="#562e60" d="M2914.9,1242.4c-118.9,0-230.6-46.3-314.7-130.3c-84.1-84.1-130.3-195.8-130.3-314.7
						c0-118.9,46.3-230.6,130.3-314.7c84.1-84.1,195.8-130.3,314.7-130.3c118.9,0,230.6,46.3,314.7,130.3
						c84.1,84.1,130.3,195.8,130.3,314.7c0,118.9-46.3,230.6-130.3,314.7C3145.5,1196.1,3033.7,1242.4,2914.9,1242.4z M2914.9,393.7
						c-222.6,0-403.7,181.1-403.7,403.7c0,222.6,181.1,403.7,403.7,403.7c222.6,0,403.7-181.1,403.7-403.7
						C3318.5,574.8,3137.5,393.7,2914.9,393.7z"/><path fill="#fff" d="M3037.6,684.5l122.5,17.5c33.9,4.9,47.5,46.4,23,70.3l-88.4,86.6c-9.7,9.5-14.1,23.2-11.8,36.5l21.2,121.9
						c5.9,33.7-29.5,59.5-59.8,43.6l-109.7-57.3c-12-6.3-26.4-6.3-38.4,0.1l-109.4,57.8c-30.2,16-65.7-9.6-60-43.3l20.7-122
						c2.3-13.4-2.2-27-11.9-36.5l-88.8-86.2c-24.5-23.8-11.1-65.4,22.7-70.4l122.4-18.1c13.4-2,25-10.4,31-22.6l54.5-111.1
						c15.1-30.7,58.8-30.8,74-0.2l55,110.9C3012.5,674.2,3024.1,682.6,3037.6,684.5z"/><path fill="#562e60" d="M2767.5 1087.1c-12.7 0-25.4-4-36.2-11.8-19.2-13.9-28.7-37.1-24.8-60.5l20.7-122c1.1-6.7-1.1-13.5-6-18.2l-88.8-86.2c-17-16.5-23.1-40.8-15.8-63.4 7.3-22.6 26.4-38.8 49.9-42.3l122.4-18.1c6.7-1 12.5-5.2 15.5-11.3l54.5-111.1c10.5-21.3 31.7-34.6 55.5-34.6 0 0 .1 0 .1 0 23.7 0 44.9 13.2 55.5 34.4l55 110.9c3 6.1 8.8 10.3 15.5 11.2 0 0 0 0 0 0l122.5 17.5c23.5 3.4 42.7 19.5 50.1 42 7.4 22.6 1.4 46.9-15.5 63.5l-88.4 86.6c-4.8 4.7-7 11.6-5.9 18.2l21.2 121.9c4.1 23.4-5.3 46.6-24.5 60.6-19.2 14-44.2 15.9-65.2 4.9l-109.7-57.4c-6-3.1-13.2-3.1-19.2 0l-109.4 57.8C2787.3 1084.7 2777.4 1087.1 2767.5 1087.1zM2914.5 548.9C2914.5 548.9 2914.5 548.9 2914.5 548.9c-8.1 0-14.9 4.3-18.5 11.5l-54.5 111.1c-9 18.3-26.4 31-46.5 34l-122.5 18.1c-7.9 1.2-14.1 6.4-16.6 14.1-2.5 7.6-.5 15.5 5.3 21.1l88.8 86.2c14.6 14.2 21.3 34.7 17.9 54.8l-20.7 122c-1.3 7.9 1.7 15.4 8.2 20.1 6.5 4.7 14.6 5.3 21.7 1.5l109.4-57.8c18-9.5 39.6-9.6 57.6-.1l109.7 57.4c7.1 3.7 15.2 3.1 21.7-1.6 6.5-4.7 9.5-12.3 8.1-20.2L3062.5 899c-3.5-20.1 3.1-40.6 17.7-54.9l88.4-86.6c5.7-5.6 7.7-13.5 5.2-21.1-2.5-7.6-8.7-12.8-16.7-14L3034.7 705c-20.2-2.9-37.6-15.5-46.7-33.8l-55-110.9C2929.4 553.2 2922.5 548.9 2914.5 548.9zM2035.8 1268.6c-5.3 0-10.6-2-14.6-6.1l-70.1-70.1c-8.1-8.1-8.1-21.2 0-29.2 8.1-8.1 21.2-8.1 29.2 0l55.4 55.4 125.5-125.5c8.1-8.1 21.2-8.1 29.2 0 8.1 8.1 8.1 21.2 0 29.2l-140.1 140.1C2046.4 1266.6 2041.1 1268.6 2035.8 1268.6zM2035.8 904.3c-5.3 0-10.6-2-14.6-6.1l-70.1-70.1c-8.1-8.1-8.1-21.2 0-29.2 8.1-8.1 21.2-8.1 29.2 0l55.4 55.4 125.5-125.5c8.1-8.1 21.2-8.1 29.2 0 8.1 8.1 8.1 21.2 0 29.2l-140.1 140.1C2046.4 902.3 2041.1 904.3 2035.8 904.3zM2035.8 536.5c-5.3 0-10.6-2-14.6-6.1l-70.1-70.1c-8.1-8.1-8.1-21.2 0-29.2 8.1-8.1 21.2-8.1 29.2 0l55.4 55.4 125.5-125.5c8.1-8.1 21.2-8.1 29.2 0 8.1 8.1 8.1 21.2 0 29.2l-140.1 140.1C2046.4 534.4 2041.1 536.5 2035.8 536.5z"/><g><path fill="#ffd45a" d="M999.9,758.1l72.5,148.8l162.2,23.9c83.5,12.3,116.9,116.2,56.4,175.9l-117.3,115.8l27.7,163.6
						c14.3,84.2-73,148.5-147.7,108.7l-145-77.2l-145.1,77.2c-74.7,39.8-162-24.5-147.7-108.7l27.7-163.6l-117.3-115.8
						c-60.4-59.7-27.1-163.6,56.4-175.9l162.2-23.9l72.5-148.8C854.6,681.4,962.5,681.4,999.9,758.1z"/><path fill="#562e60" d="M1101.1,1527.4c-19.5,0-39.1-4.8-57.2-14.4L908.6,1441L773.2,1513c-41.2,21.9-90.3,18.6-128.2-8.7
						c-38.6-27.8-57.6-74.5-49.6-121.7l25.9-153l-109.7-108.3c-33.8-33.3-45.5-82.2-30.7-127.4c14.7-44.8,52.4-76.8,98.6-83.6
						L730.9,888l67.8-139c20.8-42.6,62.9-69.1,109.9-69.1c47,0,89.1,26.5,109.9,69.1l0,0l67.7,139l151.4,22.3
						c46.2,6.8,84,38.8,98.6,83.6c14.8,45.3,3.1,94.1-30.7,127.4l-109.7,108.3l25.9,153c8,47.2-11,93.8-49.6,121.7
						C1150.8,1519.6,1126,1527.4,1101.1,1527.4z M908.6,1396.9c3.3,0,6.7,0.8,9.7,2.4l145,77.2c27.6,14.7,59.2,12.5,84.6-5.8
						c26.1-18.8,38.5-49.2,33-81.2l-27.7-163.6c-1.1-6.6,1.1-13.4,5.9-18.2l117.3-115.8c22.9-22.6,30.5-54.4,20.5-85.2
						c-9.9-30.2-34.3-51-65.4-55.6l-162.2-23.9c-6.8-1-12.6-5.3-15.6-11.4l-72.5-148.8l0,0c-14-28.7-41.2-45.9-72.7-45.9
						c-31.5,0-58.7,17.1-72.7,45.9L763.3,916c-3,6.1-8.8,10.4-15.6,11.4l-162.1,23.9c-31,4.6-55.5,25.3-65.4,55.6
						c-10.1,30.7-2.4,62.6,20.4,85.2L658,1207.8c4.8,4.7,7,11.5,5.9,18.2l-27.7,163.6c-5.4,32,6.9,62.4,33,81.2
						c25.4,18.3,57,20.5,84.6,5.8l145.1-77.2C901.9,1397.7,905.2,1396.9,908.6,1396.9z"/><rect width="430.2" height="541.4" x="306" y="2229.9" fill="#ff8f83"/><path fill="#562e60" d="M736.2,2791.9H306c-11.4,0-20.7-9.3-20.7-20.7v-541.4c0-11.4,9.3-20.7,20.7-20.7h430.2
								c11.4,0,20.7,9.3,20.7,20.7v541.4C756.8,2782.7,747.6,2791.9,736.2,2791.9z M326.7,2750.6h388.8v-500H326.7V2750.6z"/><path fill="#562e60" d="M529.7,2656.6c-11.4,0-20.7-9.3-20.7-20.7v-221.4l-68.1,66.9c-8.1,8-21.2,7.9-29.2-0.2
								c-8-8.1-7.9-21.2,0.2-29.2l103.2-101.5c5.9-5.8,14.8-7.5,22.5-4.3c7.7,3.2,12.7,10.7,12.7,19.1v270.7
								C550.4,2647.3,541.1,2656.6,529.7,2656.6z"/><rect width="430.2" height="710.5" x="736.2" y="2060.8" fill="#ffd45a"/><path fill="#562e60" d="M1166.3,2791.9H736.2c-11.4,0-20.7-9.3-20.7-20.7v-710.5c0-11.4,9.3-20.7,20.7-20.7h430.2
								c11.4,0,20.7,9.3,20.7,20.7v710.5C1187,2782.7,1177.7,2791.9,1166.3,2791.9z M756.8,2750.6h388.8v-669.2H756.8V2750.6z"/><path fill="#562e60" d="M1028.7,2572H891c-11.4,0-20.7-9.3-20.7-20.7V2416c0-11.4,9.3-20.7,20.7-20.7h117v-94H891
								c-11.4,0-20.7-9.3-20.7-20.7s9.3-20.7,20.7-20.7h137.6c11.4,0,20.7,9.3,20.7,20.7V2416c0,11.4-9.3,20.7-20.7,20.7h-117v94
								h117c11.4,0,20.7,9.3,20.7,20.7S1040.1,2572,1028.7,2572z"/><rect width="447.4" height="879.7" x="1166.3" y="1891.6" fill="#fff"/><path fill="#562e60" d="M1613.7,2791.9h-447.4c-11.4,0-20.7-9.3-20.7-20.7v-879.7c0-11.4,9.3-20.7,20.7-20.7h447.4
								c11.4,0,20.7,9.3,20.7,20.7v879.7C1634.4,2782.7,1625.1,2791.9,1613.7,2791.9z M1187,2750.6h406v-838.3h-406V2750.6z"/><path fill="#562e60" d="M1458.8,2453.6h-137.6c-11.4,0-20.7-9.3-20.7-20.7s9.3-20.7,20.7-20.7h117v-229.3h-117
								c-11.4,0-20.7-9.3-20.7-20.7s9.3-20.7,20.7-20.7h137.6c11.4,0,20.7,9.3,20.7,20.7v270.7
								C1479.5,2444.3,1470.3,2453.6,1458.8,2453.6z"/><path fill="#562e60" d="M1458.8,2318.3h-103.2c-11.4,0-20.7-9.3-20.7-20.7s9.3-20.7,20.7-20.7h103.2c11.4,0,20.7,9.3,20.7,20.7
								S1470.2,2318.3,1458.8,2318.3z"/><g><path fill="#562e60" d="M495.3,2127.5c-11.4,0-20.7-9.3-20.7-20.7v-91.2c0-138.9,114.8-251.9,255.8-251.9
								c47.7,0,94.2,13,134.5,37.6l13,7.8c9.8,5.9,13,18.6,7.1,28.4s-18.6,13-28.4,7.1l-13.1-7.9c-34-20.7-73-31.6-113.1-31.6
								c-118.3,0-214.5,94.4-214.5,210.5v91.2C516,2118.3,506.7,2127.5,495.3,2127.5z"/><path fill="#562e60" d="M761.3,1886.5c-8.4,0-16.3-5.2-19.4-13.5c-3.9-10.7,1.6-22.6,12.3-26.5l91.1-33.5l-8-88.3
								c-1-11.4,7.3-21.4,18.7-22.5c11.4-1,21.4,7.3,22.5,18.7l9.5,104.1c0.8,9.3-4.7,18-13.4,21.3l-106,39
								C766,1886.1,763.6,1886.5,761.3,1886.5z"/></g><g><path fill="#562e60" d="M959.9,1945.8c-11.4,0-20.7-9.3-20.7-20.7v-78.5c0-138.9,114.8-251.9,255.8-251.9
								c47.7,0,94.2,13,134.5,37.6l13,7.8c9.8,5.9,13,18.6,7.1,28.4c-5.9,9.8-18.6,13-28.4,7.1l-13.1-7.9
								c-34-20.7-73-31.6-113.1-31.6c-118.3,0-214.5,94.4-214.5,210.5v78.5C980.5,1936.5,971.3,1945.8,959.9,1945.8z"/><path fill="#562e60" d="M1225.8,1717.5c-8.4,0-16.3-5.2-19.4-13.5c-3.9-10.7,1.6-22.6,12.3-26.5l91.1-33.5l-8-88.3
								c-1-11.4,7.3-21.4,18.7-22.5c11.4-1,21.4,7.3,22.5,18.7l9.5,104.1c0.8,9.3-4.7,18-13.4,21.3l-106,39
								C1230.6,1717.1,1228.2,1717.5,1225.8,1717.5z"/></g></g><g><path fill="#fff" d="M2654.7,2853.3v507.2h-739.2c-26.2,0-47.5,21.3-47.5,47.5v507.2h786.7h94.3h786.7V2805.8h-833.5
					C2676,2805.8,2654.7,2827.1,2654.7,2853.3z"/><path fill="#ff8f83" d="M3535.7,3646.6V3886c0,16.1-13.1,29.2-29.2,29.2h-655.7c-16.2,0-29.2-13.1-29.2-29.2v-239.3H3535.7z"/><path fill="#562e60" d="M3506.4 3935.9h-655.7c-27.5 0-49.9-22.4-49.9-49.9v-239.3c0-11.4 9.3-20.7 20.7-20.7 11.4 0 20.7 9.3 20.7 20.7V3886c0 4.7 3.8 8.6 8.6 8.6h655.7c4.7 0 8.6-3.8 8.6-8.6v-239.3c0-11.4 9.3-20.7 20.7-20.7s20.7 9.3 20.7 20.7V3886C3556.3 3913.5 3533.9 3935.9 3506.4 3935.9zM3358.9 3376.7c-11.4 0-20.7-9.3-20.7-20.7v-74.9c0-20.9-17-37.8-37.8-37.8h-243.7c-20.9 0-37.8 17-37.8 37.8v74.9c0 11.4-9.3 20.7-20.7 20.7-11.4 0-20.7-9.3-20.7-20.7v-74.9c0-43.6 35.5-79.2 79.2-79.2h243.7c43.6 0 79.2 35.5 79.2 79.2v74.9C3379.6 3367.4 3370.3 3376.7 3358.9 3376.7z"/><path fill="#ff8f83" d="M3071.3,3646.6H2817c-16.1,0-29.2-13.1-29.2-29.2v-232.1c0-16.2,13.1-29.2,29.2-29.2h723.2
								c16.2,0,29.2,13.1,29.2,29.2v232.1c0,16.2-13.1,29.2-29.2,29.2h-254.3H3071.3z"/><path fill="#562e60" d="M3540.2,3667.3h-254.3c-11.4,0-20.7-9.3-20.7-20.7s9.3-20.7,20.7-20.7h254.3c4.7,0,8.6-3.8,8.6-8.6
								v-232.1c0-4.7-3.8-8.6-8.6-8.6H2817c-4.7,0-8.6,3.8-8.6,8.6v232.1c0,4.7,3.8,8.6,8.6,8.6h254.3c11.4,0,20.7,9.3,20.7,20.7
								s-9.3,20.7-20.7,20.7H2817c-27.5,0-49.9-22.4-49.9-49.9v-232.1c0-27.5,22.4-49.9,49.9-49.9h723.2c27.5,0,49.9,22.4,49.9,49.9
								v232.1C3590.1,3644.9,3567.7,3667.3,3540.2,3667.3z"/><path fill="#fff" d="M3256.7,3718.9h-156.2c-16.1,0-29.2-13.1-29.2-29.2v-86.1c0-16.1,13.1-29.2,29.2-29.2h156.2
								c16.1,0,29.2,13.1,29.2,29.2v86.1C3285.9,3705.8,3272.8,3718.9,3256.7,3718.9z"/><path fill="#562e60" d="M3256.7,3739.6h-156.2c-27.5,0-49.9-22.4-49.9-49.9v-86.1c0-27.5,22.4-49.9,49.9-49.9h156.2
								c27.5,0,49.9,22.4,49.9,49.9v86.1C3306.6,3717.2,3284.2,3739.6,3256.7,3739.6z M3100.5,3595.1c-4.7,0-8.6,3.8-8.6,8.6v86.1
								c0,4.7,3.8,8.6,8.6,8.6h156.2c4.7,0,8.6-3.8,8.6-8.6v-86.1c0-4.7-3.8-8.6-8.6-8.6H3100.5z"/><g><path fill="#562e60" d="M1868,3935.3h-757.8c-11.4,0-20.7-9.3-20.7-20.7c0-11.4,9.3-20.7,20.7-20.7H1868
									c11.4,0,20.7,9.3,20.7,20.7C1888.7,3926.1,1879.5,3935.3,1868,3935.3z"/><path fill="#562e60" d="M1868,3935.3c-11.4,0-20.7-9.3-20.7-20.7v-503.5c0-38.5,32.6-69.8,72.6-69.8h734.7
									c11.4,0,20.7,9.3,20.7,20.7c0,11.4-9.3,20.7-20.7,20.7H1920c-17.2,0-31.3,12.8-31.3,28.4v503.5
									C1888.7,3926.1,1879.5,3935.3,1868,3935.3z"/><path fill="#562e60" d="M2654.7,3382.8c-11.4,0-20.7-9.3-20.7-20.7v-503.5c0-38.5,32.6-69.8,72.6-69.8h835.6
									c11.4,0,20.7,9.3,20.7,20.7c0,11.4-9.3,20.7-20.7,20.7h-835.6c-17.2,0-31.3,12.8-31.3,28.4v503.5
									C2675.4,3373.5,2666.1,3382.8,2654.7,3382.8z"/><path fill="#562e60" d="M3453.2,2949.9c-5.2,0-10.4-1.9-14.4-5.8c-8.2-7.9-8.4-21-0.5-29.2l101.8-105.3L3431,2696.8
									c-7.9-8.2-7.7-21.3,0.5-29.2c8.2-7.9,21.3-7.7,29.2,0.5l123,127.1c7.7,8,7.7,20.7,0,28.7L3468,2943.6
									C3464,2947.8,3458.6,2949.9,3453.2,2949.9z"/><path fill="#ffd45a" d="M1926,3251.7c0-115,96.4-209.5,215.6-212.8l178.7-0.1c122.2,0,222.2,95.8,222.2,212.9H1926z"/><path fill="#562e60" d="M2542.5,3272.3c-11.4,0-20.7-9.3-20.7-20.7c0-106-90.4-192.3-201.5-192.3l-178.4,0.1
									c-107.7,3.2-195.3,89.3-195.3,192.2c0,11.4-9.3,20.7-20.7,20.7c-11.4,0-20.7-9.3-20.7-20.7c0-61.1,24.6-119,69.3-163
									c44.4-43.7,103.5-68.7,166.4-70.5c0.2,0,0.4,0,0.6,0l178.7-0.1c133.9,0,242.9,104.8,242.9,233.6
									C2563.2,3263.1,2553.9,3272.3,2542.5,3272.3z"/><path fill="#fff" d="M2320.3,3005.7v39c0,33-40.2,60-89.4,60l0,0c-49.2,0-89.4-27-89.4-60v-39H2320.3z"/><path fill="#562e60" d="M2231,3125.5c-61.7,0-110-35.4-110-80.7v-39.1c0-11.4,9.3-20.7,20.7-20.7s20.7,9.3,20.7,20.7v39.1
									c0,18.6,28.2,39.4,68.7,39.4c40.5,0,68.7-20.7,68.7-39.4v-39.1c0-11.4,9.3-20.7,20.7-20.7c11.4,0,20.7,9.3,20.7,20.7v39.1
									C2341,3090,2292.7,3125.5,2231,3125.5z"/><path fill="#fff" d="M2231,2503.6L2231,2503.6c-112.2,0-205.1,84.3-215.2,191c-0.3,0-0.6,0-1,0l0,0
									c-37.6,0-68.3,29.9-68.3,66.5c0,36.5,30.7,66.5,68.3,66.5l0,0c0.3,0,0.6,0,1,0c10.1,106.7,103,191,215.2,191l0,0
									c112.2,0,205.1-84.3,215.2-191c0.3,0,0.6,0,1,0c37.6,0,68.3-29.9,68.3-66.5c0-36.6-30.7-66.5-68.3-66.5c-0.3,0-0.6,0-1,0
									L2231,2503.6z"/><path fill="#562e60" d="M2231,3039.1c-59.1,0-115.8-21.6-159.6-60.7c-39.3-35.1-65.1-81.4-73.8-131.9
									c-40.8-7.9-71.6-43.2-71.6-85.5c0-42.2,30.8-77.5,71.6-85.5c8.7-50.5,34.5-96.8,73.8-131.9c43.8-39.2,100.5-60.7,159.6-60.7
									c11.4,0,20.7,9.3,20.7,20.7c0,11.4-9.3,20.7-20.7,20.7c-100,0-185.5,75.7-194.6,172.3c-1,10.6-9.9,18.7-20.6,18.7
									c-0.1,0-0.2,0-0.3,0c-0.4,0-0.8,0-1.1,0c-26,0.2-47.1,20.7-47.1,45.8c0,25.1,21.1,45.5,47.1,45.8c0.4,0,0.8,0,1.2,0
									c0.1,0,0.2,0,0.2,0c10.6,0,19.6,8.1,20.6,18.7c9.1,96.6,94.6,172.3,194.6,172.3c100,0,185.5-75.7,194.6-172.3
									c1-10.6,9.9-18.7,20.6-18.7c0.1,0,0.2,0,0.2,0c0.4,0,0.8,0,1.2,0c26-0.3,47.1-20.7,47.1-45.8c0-25.1-21.1-45.5-47.2-45.8
									c-0.4,0-0.8,0-1.1,0c-0.1,0-0.2,0-0.3,0c-11.3,0-20.5-9.1-20.7-20.4c-0.2-11.2,8.7-20.5,19.8-21c0.6,0,1.2-0.1,1.8-0.1
									c49.1,0,89,39.1,89,87.1c0,42.2-30.8,77.5-71.6,85.5c-8.7,50.5-34.5,96.8-73.8,131.9
									C2346.8,3017.5,2290.1,3039.1,2231,3039.1z M2445.8,2673.9C2445.8,2673.9,2445.8,2673.9,2445.8,2673.9
									C2445.8,2673.9,2445.8,2673.9,2445.8,2673.9z M2445.9,2673.9C2445.8,2673.9,2445.8,2673.9,2445.9,2673.9
									C2445.8,2673.9,2445.8,2673.9,2445.9,2673.9z"/><g><path fill="#ffd45a" d="M2359.9,2610.7v20.5v33.9v73.7c0,25.5,23,46,49.5,42c21.3-3.1,36.4-22.3,36.4-43.6v-42.7v-140.1
									c0-28.1-23-50.9-51.4-50.9H2231c0,0,0,0,0,0c-196.5,14-214.7,190.3-214.8,191c0,0,0,0,0,0v44.2c0,25.5,23,46,49.5,42
									c21.3-3.1,36.4-22.3,36.4-43.6v-33v-34.4c0,0,132.4,42.4,257.8-38.5L2359.9,2610.7L2359.9,2610.7z"/><path fill="#562e60" d="M2402.9,2802c-15.3,0-30.1-5.4-41.8-15.5c-14-12-22-29.4-22-47.7v-72.1c-88.4,44-174.2,36.9-216.4,29.1
									v41.4c0,32-23.3,59.5-54.1,64.1c-18.5,2.7-37.2-2.7-51.2-14.8c-14-12-22-29.4-22-47.7v-44.2c0-0.7,0-1.4,0.1-2.1
									c0.2-2,5.4-49.9,36.8-99.5c29.1-45.9,86.9-102.2,197.1-110c0.3,0,0.5,0,0.8,0c0.2,0,0.5,0,0.7,0h163.4
									c39.8,0,72.1,32.1,72.1,71.6v182.8c0,32-23.3,59.5-54.1,64.1C2409.2,2801.8,2406,2802,2402.9,2802z M2036.8,2695.8v43
									c0,6.2,2.8,12.2,7.6,16.4c5,4.3,11.5,6.2,18.2,5.2c10.7-1.6,18.8-11.5,18.8-23.2v-67.5c0-6.6,3.2-12.8,8.5-16.7
									c5.3-3.9,12.2-5,18.5-3c1.2,0.4,118.3,36.1,230.8-30.4v-9c0-11.4,9.3-20.7,20.7-20.7s20.7,9.3,20.7,20.7v20.2
									c0,0.2,0,0.4,0,0.6v107.3c0,6.2,2.8,12.2,7.6,16.4c5,4.3,11.5,6.2,18.2,5.2c10.7-1.6,18.8-11.5,18.8-23.2v-182.8
									c0-16.7-13.8-30.2-30.8-30.2h-162.6c-73.7,5.4-128.8,35.6-163.6,89.7C2043.6,2652,2037.7,2689.7,2036.8,2695.8z"/></g><g><path fill="#ff8f83" d="M2739.8,2702.4c0-115,96.4-209.5,215.6-212.8l178.7-0.1c122.2,0,222.2,95.8,222.2,212.9H2739.8z"/><path fill="#562e60" d="M3356.3,2723.1c-11.4,0-20.7-9.3-20.7-20.7c0-106-90.4-192.3-201.5-192.3l-178.4,0.1
									c-107.7,3.2-195.3,89.3-195.3,192.2c0,11.4-9.3,20.7-20.7,20.7s-20.7-9.3-20.7-20.7c0-61.1,24.6-119,69.3-163
									c44.4-43.7,103.5-68.7,166.4-70.5c0.2,0,0.4,0,0.6,0l178.7-0.1c133.9,0,242.9,104.8,242.9,233.6
									C3377,2713.8,3367.7,2723.1,3356.3,2723.1z"/><path fill="#fff" d="M3134.1,2456.4v39.1c0,33-40.2,60-89.4,60l0,0c-49.2,0-89.4-27-89.4-60v-39.1H3134.1z"/><path fill="#562e60" d="M3044.8,2576.2c-61.7,0-110-35.4-110-80.7v-39.1c0-11.4,9.3-20.7,20.7-20.7s20.7,9.3,20.7,20.7v39.1
									c0,18.6,28.2,39.4,68.7,39.4c40.5,0,68.7-20.7,68.7-39.4v-39.1c0-11.4,9.3-20.7,20.7-20.7s20.7,9.3,20.7,20.7v39.1
									C3154.8,2540.7,3106.5,2576.2,3044.8,2576.2z"/><path fill="#fff" d="M3044.8,1954.3L3044.8,1954.3c-112.2,0-205.1,84.3-215.2,191c-0.3,0-0.6,0-1,0l0,0
									c-37.6,0-68.3,29.9-68.3,66.5c0,36.5,30.7,66.5,68.3,66.5l0,0c0.3,0,0.6,0,1,0c10.1,106.7,103,191,215.2,191l0,0
									c112.2,0,205.1-84.3,215.2-191c0.3,0,0.6,0,1,0c37.6,0,68.3-29.9,68.3-66.5s-30.7-66.5-68.3-66.5c-0.3,0-0.6,0-1,0
									L3044.8,1954.3z"/><path fill="#562e60" d="M3044.8,2489.8c-59.1,0-115.8-21.6-159.6-60.7c-39.3-35.1-65.1-81.4-73.8-131.9
									c-40.8-7.9-71.6-43.2-71.6-85.5s30.8-77.5,71.6-85.5c8.7-50.5,34.5-96.8,73.8-131.9c43.8-39.2,100.5-60.7,159.6-60.7
									c11.4,0,20.7,9.3,20.7,20.7c0,11.4-9.3,20.7-20.7,20.7c-100,0-185.5,75.7-194.6,172.3c-1,10.7-10,18.9-20.8,18.7
									c-0.4,0-0.8,0-1.2,0c-26,0.3-47.1,20.7-47.1,45.8c0,25.1,21.1,45.5,47.1,45.8c0.4,0,0.8,0,1.1,0c0.1,0,0.2,0,0.3,0
									c10.6,0,19.6,8.1,20.6,18.7c9.1,96.6,94.6,172.3,194.6,172.3c100,0,185.5-75.7,194.6-172.3c1-10.7,10.1-18.9,20.9-18.7
									c0.4,0,0.8,0,1.1,0c26-0.3,47.1-20.7,47.1-45.8c0-25.1-21.1-45.5-47.1-45.8c-0.4,0-0.8,0-1.2,0c-0.1,0-0.2,0-0.3,0
									c-11.3,0-20.5-9.1-20.7-20.4c-0.1-11.2,8.7-20.5,19.8-20.9c0.6,0,1.2-0.1,1.8-0.1c49.1,0,89,39.1,89,87.1
									c0,42.2-30.8,77.5-71.6,85.5c-8.7,50.5-34.5,96.8-73.8,131.9C3160.6,2468.2,3103.9,2489.8,3044.8,2489.8z M3259.6,2124.6
									C3259.6,2124.6,3259.6,2124.6,3259.6,2124.6C3259.6,2124.6,3259.6,2124.6,3259.6,2124.6z M3259.7,2124.6
									C3259.7,2124.6,3259.6,2124.6,3259.7,2124.6C3259.6,2124.6,3259.7,2124.6,3259.7,2124.6z M3259.7,2124.6
									C3259.7,2124.6,3259.7,2124.6,3259.7,2124.6C3259.7,2124.6,3259.7,2124.6,3259.7,2124.6z"/><g><path fill="#ffd45a" d="M3173.6,2061.4v20.5v33.9v73.7c0,25.5,23,46,49.5,42c21.3-3.1,36.4-22.3,36.4-43.6v-42.7v-140.1
									c0-28.1-23-50.9-51.4-50.9h-163.4c0,0,0,0,0,0c-196.5,14-214.7,190.3-214.8,191c0,0,0,0,0,0v44.2c0,25.5,23,46,49.5,42
									c21.3-3.1,36.4-22.3,36.4-43.6v-33v-34.4c0,0,132.4,42.4,257.8-38.5L3173.6,2061.4L3173.6,2061.4z"/><path fill="#562e60" d="M3216.7,2252.7c-15.3,0-30.1-5.4-41.8-15.5c-14-12-22-29.4-22-47.7v-72.1
									c-88.4,44-174.2,36.9-216.4,29.1v41.4c0,32-23.3,59.5-54.1,64.1c-18.5,2.7-37.1-2.7-51.2-14.8c-14-12-22-29.4-22-47.7v-44.2
									c0-0.7,0-1.4,0.1-2.1c0.2-2,5.4-49.9,36.8-99.5c29.1-45.9,86.9-102.2,197.1-110c0.5,0,1-0.1,1.5-0.1h163.4
									c39.8,0,72.1,32.1,72.1,71.6V2188c0,32-23.3,59.5-54.1,64.1C3223,2252.5,3219.8,2252.7,3216.7,2252.7z M3194.3,2082.2v107.3
									c0,6.2,2.8,12.2,7.6,16.4c5,4.3,11.5,6.2,18.2,5.2c10.7-1.6,18.8-11.5,18.8-23.2v-182.8c0-16.7-13.8-30.2-30.8-30.2h-162.6
									c-73.7,5.4-128.8,35.6-163.6,89.7c-24.5,38.1-30.4,75.7-31.2,81.9v43c0,6.2,2.8,12.2,7.6,16.4c5,4.3,11.5,6.2,18.2,5.2
									c10.7-1.6,18.8-11.5,18.8-23.2v-67.5c0-6.6,3.2-12.8,8.5-16.7c5.3-3.9,12.2-5,18.5-3c1.2,0.4,118.3,36.1,230.8-30.4v-9
									c0-11.4,9.3-20.7,20.7-20.7c11.4,0,20.7,9.3,20.7,20.7v20.2C3194.3,2081.8,3194.3,2082,3194.3,2082.2z"/></g></g><g><path fill="#88d875" d="M1146.2,3805.1c0-115,96.4-209.5,215.6-212.8l178.7-0.1c122.2,0,222.2,95.8,222.2,212.9H1146.2z"/><path fill="#562e60" d="M1762.8,3825.8c-11.4,0-20.7-9.3-20.7-20.7c0-106-90.4-192.3-201.5-192.3l-178.4,0.1
									c-107.7,3.2-195.3,89.3-195.3,192.2c0,11.4-9.3,20.7-20.7,20.7c-11.4,0-20.7-9.3-20.7-20.7c0-61.1,24.6-119,69.3-163
									c44.4-43.7,103.5-68.7,166.4-70.5c0.2,0,0.4,0,0.6,0l178.7-0.1c133.9,0,242.9,104.8,242.9,233.6
									C1783.5,3816.6,1774.2,3825.8,1762.8,3825.8z"/><path fill="#fff" d="M1540.6,3559.2v39c0,33-40.2,60-89.4,60l0,0c-49.2,0-89.4-27-89.4-60v-39H1540.6z"/><path fill="#562e60" d="M1451.2,3678.9c-61.7,0-110-35.4-110-80.7v-39c0-11.4,9.3-20.7,20.7-20.7s20.7,9.3,20.7,20.7v39
									c0,18.6,28.2,39.4,68.7,39.4c40.5,0,68.7-20.7,68.7-39.4v-39c0-11.4,9.3-20.7,20.7-20.7c11.4,0,20.7,9.3,20.7,20.7v39
									C1561.3,3643.5,1512.9,3678.9,1451.2,3678.9z"/><path fill="#fff" d="M1451.2,3057L1451.2,3057c-112.2,0-205.1,84.3-215.2,191c-0.3,0-0.6,0-1,0l0,0
									c-37.6,0-68.3,29.9-68.3,66.5c0,36.5,30.7,66.5,68.3,66.5l0,0c0.3,0,0.6,0,1,0c10.1,106.7,103,191,215.2,191l0,0
									c112.2,0,205.1-84.3,215.2-191c0.3,0,0.6,0,1,0c37.6,0,68.3-29.9,68.3-66.5s-30.7-66.5-68.3-66.5c-0.3,0-0.6,0-1,0
									L1451.2,3057z"/><path fill="#562e60" d="M1451.2,3592.6c-59.1,0-115.8-21.6-159.6-60.7c-39.3-35.1-65.1-81.4-73.8-131.9
									c-40.8-7.9-71.6-43.2-71.6-85.5c0-42.2,30.8-77.5,71.6-85.5c8.7-50.5,34.5-96.8,73.8-131.9c43.8-39.2,100.5-60.7,159.6-60.7
									c11.4,0,20.7,9.3,20.7,20.7c0,11.4-9.3,20.7-20.7,20.7c-100,0-185.5,75.7-194.6,172.3c-1,10.6-9.9,18.7-20.6,18.7
									c-0.1,0-0.2,0-0.4,0c-0.4,0-0.7,0-1.1,0c-26,0.3-47.1,20.7-47.1,45.8c0,25.1,21.1,45.5,47.1,45.8c0.4,0,0.7,0,1.1,0
									c10.7-0.2,19.9,8,20.9,18.7c9.1,96.6,94.6,172.3,194.6,172.3c100,0,185.5-75.7,194.6-172.3c1-10.8,10.1-18.9,20.9-18.7
									c0.4,0,0.7,0,1.1,0c26-0.3,47.1-20.7,47.1-45.8c0-25.1-21.1-45.5-47.1-45.8c-0.4,0-0.7,0-1.1,0c-0.1,0-0.3,0-0.4,0
									c-11.2,0-20.5-9-20.7-20.3c-0.2-11.2,8.6-20.5,19.8-21c0.6,0,1.2-0.1,1.8-0.1c49.1,0,89,39.1,89,87.1
									c0,42.2-30.8,77.5-71.6,85.5c-8.7,50.5-34.5,96.8-73.8,131.9C1567,3571,1510.3,3592.6,1451.2,3592.6z"/><g><path fill="#ffd45a" d="M1580.1,3164.2v20.5v33.9v73.7c0,25.5,23,46,49.5,42c21.3-3.1,36.4-22.3,36.4-43.6v-42.7v-140.1
									c0-28.1-23-50.9-51.4-50.9h-163.4c0,0,0,0,0,0c-196.5,14-214.7,190.3-214.8,191c0,0,0,0,0,0v44.2c0,25.5,23,46,49.5,42
									c21.3-3.1,36.4-22.3,36.4-43.6v-33v-34.4c0,0,132.4,42.4,257.8-38.5L1580.1,3164.2L1580.1,3164.2z"/><path fill="#562e60" d="M1623.2,3355.5c-15.3,0-30.1-5.4-41.8-15.5c-14-12-22-29.4-22-47.7v-72.1
									c-88.4,44-174.2,36.9-216.4,29.1v41.4c0,32-23.3,59.5-54.1,64.1c-18.5,2.7-37.2-2.7-51.2-14.8c-14-12-22-29.4-22-47.7v-44.2
									c0-0.7,0-1.4,0.1-2.1c0.2-2,5.4-49.9,36.8-99.5c29.1-45.9,86.9-102.2,197.1-110c0.5,0,1-0.1,1.5-0.1h163.4
									c39.8,0,72.1,32.1,72.1,71.6v182.8c0,32-23.3,59.5-54.1,64.1C1629.5,3355.3,1626.3,3355.5,1623.2,3355.5z M1600.8,3185
									v107.3c0,6.2,2.8,12.2,7.6,16.4c5,4.3,11.5,6.2,18.2,5.2c10.7-1.6,18.8-11.5,18.8-23.2v-182.8c0-16.7-13.8-30.2-30.8-30.2
									H1452c-73.7,5.4-128.8,35.6-163.6,89.8c-24.5,38.1-30.4,75.7-31.2,81.9v43c0,6.2,2.8,12.2,7.6,16.4c5,4.3,11.5,6.2,18.2,5.2
									c10.7-1.6,18.8-11.5,18.8-23.2v-67.5c0-6.6,3.2-12.8,8.5-16.7c5.3-3.9,12.2-5,18.5-3c1.2,0.4,118.3,36.1,230.8-30.4v-9
									c0-11.4,9.3-20.7,20.7-20.7c11.4,0,20.7,9.3,20.7,20.7v20.2C1600.8,3184.6,1600.8,3184.8,1600.8,3185z"/></g></g></g></g></svg>