<svg xmlns="http://www.w3.org/2000/svg" viewBox="0 0 128 128"><path fill="#FC5C3A" d="M29 34h82v12H29z"/><path fill="#DF5436" d="M111 46V34h-9.354a16.268 16.268 0 0 0-2.009 1.686A15.872 15.872 0 0 0 95 46h16z"/><path fill="#FC5C3A" d="M101.808 37.807C104.345 35.269 107.674 34 111 34s6.655 1.269 9.192 3.807A12.964 12.964 0 0 1 124 47v9H98v-9c0-3.327 1.27-6.654 3.808-9.193z"/><path fill="#DF5436" d="M29 46V34h9.354a16.268 16.268 0 0 1 2.009 1.686A15.872 15.872 0 0 1 45 46H29z"/><path fill="#FC5C3A" d="M38.192 37.807C35.655 35.269 32.326 34 29 34s-6.655 1.269-9.192 3.807A12.964 12.964 0 0 0 16 47v9h26v-9c0-3.327-1.27-6.654-3.808-9.193z"/><path fill="#FC5C3A" d="M114.728 75.271A17.951 17.951 0 0 0 102 70a7.973 7.973 0 0 1-5.657-2.344A7.972 7.972 0 0 1 94 62V48h-8v11H54V48h-8v14a7.969 7.969 0 0 1-2.344 5.656A7.969 7.969 0 0 1 38 70a17.955 17.955 0 0 0-12.729 5.271A17.955 17.955 0 0 0 20 88v30h22v-6h56v6h22V88c0-4.606-1.758-9.213-5.272-12.729z"/><path fill="none" stroke="#38383B" stroke-miterlimit="10" stroke-width="2" d="M22 119h18M100 119h18M120 107H11a3.988 3.988 0 0 1-2.828-1.172C7.391 105.048 7 104.023 7 103s.391-2.048 1.172-2.828C8.953 99.391 9.977 99 11 99s2.047-.391 2.828-1.172C14.609 97.048 15 96.023 15 95s-.391-2.047-1.172-2.828S12.023 91 11 91s-2.047-.391-2.828-1.172S7 88.023 7 87s.391-2.047 1.172-2.828S9.977 83 11 83s2.047-.391 2.828-1.172S15 80.023 15 79s-.391-2.047-1.172-2.828S12.023 75 11 75s-2.047-.391-2.828-1.172S7 72.023 7 71s.391-2.047 1.172-2.828S9.977 67 11 67s2.047-.391 2.828-1.172S15 64.023 15 63s-.391-2.047-1.172-2.828S12.023 59 11 59s-2.047-.391-2.828-1.172S7 56.023 7 55s.391-2.047 1.172-2.828S9.977 51 11 51h31M98 51h26"/><path fill="none" stroke="#FFF" stroke-miterlimit="10" stroke-width="2" d="M22 103h2M26 103h2M30 103h2M34 103h2M38 103h2"/><path fill="none" stroke="#38383B" stroke-miterlimit="10" stroke-width="2" d="M54 60h32"/><circle cx="70" cy="84" r="17" fill="#FFF"/><path fill="none" stroke="#38383B" stroke-miterlimit="10" stroke-width="2" d="M61 81c0-.768.293-1.535.879-2.121S63.232 78 64 78h1c.768 0 1.535.293 2.121.879S68 80.232 68 81s-.293 1.535-.879 2.121S65.768 84 65 84h-1c-.768 0-1.535.293-2.121.879S61 86.232 61 87v3h8M78 77v14M80 85h-5c-.768 0-1.535-.293-2.121-.879S72 82.768 72 82v-5"/><path fill="none" stroke="#38383B" stroke-miterlimit="10" stroke-width="2" d="M70 101c-9.389 0-17-7.611-17-17s7.611-17 17-17 17 7.611 17 17"/><g fill="none" stroke="#38383B" stroke-miterlimit="10" stroke-width="2"><path d="M87 84c0 .336-.01.669-.029 1"/><path stroke-dasharray="1.9 1.9" d="M86.756 86.889c-1.264 7.385-7.292 13.144-14.809 14.001"/><path d="M71 100.971c-.331.02-.664.029-1 .029"/></g><circle cx="14" cy="29" r="14" fill="#80E1F2"/><path fill="#80E1F2" d="M28 43V29H14z"/><g fill="#FFF"><path d="M12 22h4v14h-4z"/><path d="M7 27h14v4H7z"/></g><path fill="#E2E9ED" d="M21 8h22v14H21z"/><path fill="none" stroke="#38383B" stroke-miterlimit="10" stroke-width="2" d="M27 15h2M31 15h2M35 15h2"/><path fill="#E2E9ED" d="M23 26v-4h4z"/><path fill="#80E1F2" d="M96 11h32v20H96zM125 37v-6h-6z"/><path fill="none" stroke="#38383B" stroke-miterlimit="10" stroke-width="2" d="M106 17h16M102 21h20M102 25h9"/><g fill="none" stroke="#38383B" stroke-miterlimit="10" stroke-width="2"><path d="M66 29a4 4 0 018 0M62 29a8 8 0 0116 0"/><path d="M58 29c0-6.627 5.373-12 12-12s12 5.373 12 12"/><path d="M54 29c0-8.836 7.164-16 16-16s16 7.164 16 16"/><path d="M50 29c0-11.045 8.955-20 20-20s20 8.955 20 20"/></g><path fill="none" stroke="#38383B" stroke-miterlimit="10" stroke-width="2" d="M22 62h15M22 66h9M98 60h2M102 60h2M106 60h2"/><g fill="#FFF"><path d="M96 88h4v12h-4z"/><path d="M92 92h12v4H92z"/></g><path fill="#E2E9ED" d="M104 65v20l6-6h14V65z"/><path fill="#71CEE1" d="M26.429 22.571A14.036 14.036 0 0 0 21 16.887V22h2v4l3.429-3.429z"/><path fill="#7E5137" d="M28 34.048a12.928 12.928 0 0 0-11.265 8.681 13.966 13.966 0 0 0 7.166-3.829L28 43v-8.952z"/><path fill="#DF5436" d="M114.728 75.271A17.91 17.91 0 0 0 104 70.122V85l6-6h7.568a17.977 17.977 0 0 0-2.84-3.729z"/></svg>