<svg xmlns="http://www.w3.org/2000/svg" viewBox="0 0 3000 3000"><path fill="#FFF" d="M0 0h3000v3000H0z"/><path fill="#353640" d="M2194.05 1257.945a2.085 2.085 0 0 1-1.994-1.479c-3.465-11.417-12.931-19.712-24.704-21.649a31.44 31.44 0 0 0-5.061-.414c-9.975 0-19.408 4.864-25.235 13.01a2.085 2.085 0 0 1-2.444.733 151.394 151.394 0 0 1-15.869-7.18 2.084 2.084 0 0 1-1.063-2.315c2.683-11.61-1.372-23.51-10.581-31.058a31.109 31.109 0 0 0-19.655-7.027 31.4 31.4 0 0 0-12.91 2.792 2.083 2.083 0 0 1-2.482-.584 146.92 146.92 0 0 1-10.153-14.141 2.085 2.085 0 0 1 .24-2.538c5.479-5.854 8.536-13.802 8.388-21.807l-.016-.639a2.157 2.157 0 0 1-.005-.14c0-.105-.008-.218-.016-.324v-.004a1.945 1.945 0 0 1-.014-.222c0-.063-.003-.127-.011-.186a1.596 1.596 0 0 1-.015-.139l-.145-1.567a1.386 1.386 0 0 1-.025-.157 22.454 22.454 0 0 0-.247-1.574c-.007-.038-.014-.075-.019-.112a30.965 30.965 0 0 0-1.496-5.339 2.69 2.69 0 0 1-.061-.186c-4.263-11.054-14.214-18.62-26.019-19.764a2.083 2.083 0 0 1-1.857-1.746 150.042 150.042 0 0 1-1.735-17.312 2.084 2.084 0 0 1 1.479-2.083c11.425-3.463 19.72-12.929 21.647-24.702 1.927-11.75-2.896-23.359-12.587-30.297a2.086 2.086 0 0 1-.733-2.441 149.438 149.438 0 0 1 7.171-15.873 2.079 2.079 0 0 1 2.316-1.063c2.291.529 4.648.797 7.007.797 9.365 0 18.132-4.15 24.05-11.386 7.553-9.225 9.176-21.704 4.235-32.567a2.086 2.086 0 0 1 .588-2.485 150.318 150.318 0 0 1 14.137-10.141 2.085 2.085 0 0 1 2.537.24 31.004 31.004 0 0 0 21.244 8.392c3.742 0 7.432-.677 10.966-2.011 11.155-4.211 18.8-14.205 19.951-26.081a2.087 2.087 0 0 1 1.746-1.858 148.354 148.354 0 0 1 17.314-1.734c.972-.025 1.804.569 2.08 1.477 3.474 11.418 12.939 19.714 24.703 21.65 1.675.274 3.378.414 5.062.414 9.98 0 19.418-4.864 25.243-13.01a2.084 2.084 0 0 1 2.445-.733 152.13 152.13 0 0 1 15.868 7.179 2.084 2.084 0 0 1 1.064 2.318c-2.69 11.602 1.363 23.502 10.58 31.056a31.116 31.116 0 0 0 19.656 7.027c4.429 0 8.893-.966 12.909-2.792a2.083 2.083 0 0 1 2.482.584 147.013 147.013 0 0 1 10.144 14.141 2.083 2.083 0 0 1-.24 2.537c-8.146 8.711-10.591 21.054-6.381 32.21l.017.044.043.102.07.18c.011.027.041.114.051.141l.626 1.465c.016.032.03.065.043.098l.367.767.059.11.438.853.052.098.225.412c.034.051.067.104.098.158l.352.617c.039.056.075.113.108.173l.04.071c.026.04.052.079.07.111l.216.344.02.032.551.836c.032.04.063.082.093.125a30.159 30.159 0 0 0 2.058 2.656c5.235 6.033 12.512 9.783 20.487 10.56.944.092 1.707.81 1.856 1.746a147.982 147.982 0 0 1 1.734 17.315 2.085 2.085 0 0 1-1.478 2.08c-11.42 3.465-19.711 12.93-21.638 24.702-1.937 11.751 2.886 23.359 12.585 30.297a2.084 2.084 0 0 1 .732 2.445 153.204 153.204 0 0 1-7.168 15.866 2.083 2.083 0 0 1-2.316 1.065 31.194 31.194 0 0 0-7.013-.798c-9.361 0-18.129 4.147-24.057 11.378-7.552 9.233-9.171 21.715-4.225 32.574a2.085 2.085 0 0 1-.587 2.486c-4.544 3.67-9.3 7.082-14.136 10.14a2.084 2.084 0 0 1-2.538-.239 31.01 31.01 0 0 0-21.244-8.393c-3.742 0-7.432.677-10.966 2.011-11.155 4.208-18.8 14.202-19.951 26.081a2.086 2.086 0 0 1-1.747 1.858 148.679 148.679 0 0 1-17.323 1.734c-.027.002-.055.002-.083.002zm-31.759-27.712c1.908 0 3.839.158 5.736.469 12.814 2.108 23.218 10.856 27.51 23.002 4.551-.236 9.15-.697 13.712-1.374 1.818-12.756 10.294-23.38 22.436-27.961a35.09 35.09 0 0 1 12.438-2.28 35.146 35.146 0 0 1 22.876 8.431 147.613 147.613 0 0 0 11.19-8.029c-4.808-11.951-2.783-25.391 5.437-35.442 6.724-8.203 16.668-12.906 27.283-12.906 2.13 0 4.261.193 6.354.575a149.154 149.154 0 0 0 5.679-12.572c-10.124-7.954-15.075-20.596-12.968-33.385 2.097-12.812 10.842-23.216 22.991-27.508a143.88 143.88 0 0 0-1.373-13.704 35.115 35.115 0 0 1-23.856-14.659 2.003 2.003 0 0 1-.128-.171l-.705-1.068a2.917 2.917 0 0 1-.073-.119l-.045-.071a15.442 15.442 0 0 1-.158-.252 2.829 2.829 0 0 1-.09-.143 1.874 1.874 0 0 1-.104-.167l-.356-.624a2.117 2.117 0 0 1-.104-.166l-.09-.16c-.017-.029-.032-.059-.048-.089l-.212-.39-.059-.11-.542-1.041a2.031 2.031 0 0 1-.124-.263l-.316-.664a2.174 2.174 0 0 1-.058-.131l-.041-.088a6.115 6.115 0 0 1-.053-.118l-.632-1.508-.04-.112a1.904 1.904 0 0 1-.072-.169l-.06-.16c-4.578-12.134-2.209-25.515 6.155-35.307a143.26 143.26 0 0 0-8.028-11.192 35.684 35.684 0 0 1-13.136 2.526 35.296 35.296 0 0 1-22.299-7.971c-10.031-8.222-14.67-20.982-12.332-33.627a148.486 148.486 0 0 0-12.571-5.687c-6.657 8.45-16.875 13.448-27.655 13.448-1.908 0-3.839-.158-5.737-.469-12.805-2.108-23.208-10.857-27.508-23.002-4.554.236-9.15.697-13.703 1.374-1.818 12.753-10.294 23.377-22.436 27.961a35.082 35.082 0 0 1-12.438 2.28 35.142 35.142 0 0 1-22.877-8.432 146.327 146.327 0 0 0-11.19 8.031c4.8 11.956 2.772 25.393-5.446 35.432-6.713 8.208-16.655 12.916-27.277 12.916-2.13 0-4.26-.193-6.351-.575a145.478 145.478 0 0 0-5.68 12.572c10.116 7.953 15.068 20.594 12.972 33.384-2.098 12.814-10.846 23.218-23 27.509.244 4.609.704 9.206 1.372 13.702 12.749 1.818 23.376 10.292 27.971 22.434.025.067.047.135.065.203a35.214 35.214 0 0 1 1.636 5.944l.012.068c.104.546.19 1.101.26 1.648.012.059.021.118.028.176l.117 1.073.015.13.043.63c.02.165.032.336.037.51.008.071.012.141.012.205.007.094.017.263.019.432l.021.818c.158 8.5-2.897 16.978-8.428 23.479a143.079 143.079 0 0 0 8.039 11.193 35.673 35.673 0 0 1 13.137-2.526 35.291 35.291 0 0 1 22.298 7.971c10.023 8.215 14.663 20.976 12.332 33.628a147.6 147.6 0 0 0 12.572 5.687c6.656-8.451 16.871-13.449 27.644-13.449zm25.748-26.664c-35.542 0-67.768-19.568-84.1-51.07a218.22 218.22 0 0 1-1.061-2.1l-.062-.124-1.742-3.787a91.904 91.904 0 0 1-.756-1.813l-.131-.321c-.27-.638-.529-1.322-.789-2.007l-.027-.068c-8.959-23.716-8.145-49.465 2.28-72.538 10.424-23.072 29.207-40.702 52.891-49.644 10.784-4.073 22.046-6.138 33.472-6.138 19.058 0 37.498 5.682 53.328 16.431 16.19 10.994 28.417 26.517 35.357 44.892.5 1.318.996 2.739 1.562 4.47l.092.284c.174.55.336 1.093.497 1.631l.268.895c.144.507.276.979.399 1.45.057.19.124.449.19.707l.104.394c12.137 46.918-12.932 95.193-58.306 112.318-10.781 4.073-22.041 6.138-33.466 6.138zm-.024-185.438c-10.921 0-21.687 1.975-31.999 5.869-22.641 8.548-40.598 25.402-50.563 47.459-9.966 22.058-10.744 46.673-2.192 69.313l.027.067c.253.667.493 1.303.754 1.919l.141.345c.234.576.468 1.143.713 1.71l1.688 3.669c.368.735.71 1.419 1.062 2.103 15.609 30.106 46.416 48.813 80.395 48.813 10.92 0 21.684-1.975 31.994-5.87 43.378-16.371 67.344-62.521 55.748-107.348l-.11-.42c-.055-.211-.108-.423-.17-.631-.135-.509-.261-.954-.386-1.399l-.26-.869c-.155-.517-.311-1.039-.474-1.554l-.086-.265a96.367 96.367 0 0 0-1.495-4.283c-13.248-35.068-47.321-58.628-84.787-58.628z"/><path fill="#D1F0E7" d="M1009.27 1066.07c-20.209 12.76-39.449 26.63-57.75 41.449 20.99 46.12 15.551 102.13-18.72 143.98-34.239 41.81-87.989 58.189-137.3 46.78a614.548 614.548 0 0 0-29.3 64.83c41.16 29.459 64.399 80.63 55.649 133.959-8.75 53.381-47.199 94.49-95.689 109.211.97 23.52 3.32 47.13 7.09 70.729 50.42 4.89 96.2 37.6 115.3 88.2 5.91 15.649 8.771 31.699 8.88 47.5l121.32-45.811a405.214 405.214 0 0 1-19.439-43.51c-78.461-207.8 26.38-439.86 234.18-518.33 207.81-78.47 439.87 26.38 518.33 234.18a405.373 405.373 0 0 1 14.18 45.5l121.311-45.8c-10.36-11.94-18.82-25.87-24.73-41.521-19.1-50.6-6.37-105.39 28.23-142.39a605.25 605.25 0 0 0-41.461-57.76c-46.109 20.99-102.119 15.55-143.959-18.72-41.811-34.23-58.2-87.99-46.78-137.301a613.536 613.536 0 0 0-64.841-29.29c-29.459 41.15-80.629 64.391-133.949 55.641-53.391-8.75-94.5-47.2-109.22-95.69a606.978 606.978 0 0 0-70.73 7.08c-4.89 50.43-37.6 96.21-88.2 115.311-50.602 19.112-105.412 6.383-142.402-28.227z"/><path fill="#D1F0E7" d="M848.55 1765.21c19.101 50.6 6.37 105.4-28.229 142.39a605.653 605.653 0 0 0 41.449 57.761c46.12-20.99 102.12-15.551 143.971 18.72 41.81 34.24 58.189 88 46.779 137.31a613.536 613.536 0 0 0 64.841 29.29c29.449-41.149 80.63-64.39 133.96-55.649 53.38 8.75 94.49 47.21 109.209 95.689a604.55 604.55 0 0 0 70.73-7.07c4.891-50.43 37.6-96.209 88.2-115.319s105.41-6.37 142.399 28.239c20.211-12.76 39.461-26.64 57.75-41.459-20.989-46.12-15.55-102.12 18.721-143.971 34.229-41.81 87.99-58.199 137.3-46.779a614.362 614.362 0 0 0 29.29-64.841c-41.15-29.46-64.391-80.63-55.641-133.949 8.761-53.391 47.201-94.49 95.681-109.221-.97-23.52-3.31-47.14-7.08-70.729-50.42-4.891-96.2-37.6-115.3-88.2l-110.76 41.82c78.47 207.81-26.381 439.87-234.181 518.33-207.81 78.47-439.87-26.38-518.33-234.181L848.55 1765.21z"/><path fill="#353640" d="M1335.819 2037.501a454.66 454.66 0 0 1-17.884-.351c-58.919-2.305-116.164-15.838-170.142-40.226-53.979-24.387-101.971-58.397-142.645-101.089-42.111-44.199-74.491-95.813-96.24-153.409-34.093-90.302-38.82-187.115-13.671-279.975a457.994 457.994 0 0 1 55.727-126.277c25.146-39.518 56.034-74.735 91.807-104.674a2.086 2.086 0 0 1 2.677 3.197c-147.159 123.162-200.462 326.61-132.637 506.256 42.64 112.918 126.702 202.474 236.701 252.171 110 49.699 232.766 53.583 345.682 10.944 71.932-27.159 136.019-72.362 185.334-130.725a2.084 2.084 0 1 1 3.185 2.691c-49.772 58.903-114.452 104.525-187.047 131.934-51.956 19.622-105.984 29.533-160.847 29.533zm424.451-614.465a2.083 2.083 0 0 1-1.95-1.349c-42.641-112.923-126.701-202.482-236.697-252.18-109.996-49.698-232.764-53.586-345.685-10.945a2.085 2.085 0 1 1-1.474-3.901c57.597-21.749 117.726-31.57 178.734-29.18 58.92 2.305 116.164 15.839 170.141 40.227 53.978 24.388 101.97 58.4 142.643 101.092 42.11 44.201 74.489 95.817 96.238 153.415a2.086 2.086 0 0 1-1.95 2.821z"/><path fill="#FFE072" d="M1335.561 1337.68c119.609 0 216.569 96.96 216.569 216.57 0 86.3-50.489 160.8-123.53 195.61v87.04h-186.07v-87.04c-73.04-34.81-123.53-109.31-123.53-195.61 0-119.61 96.96-216.57 216.561-216.57z"/><path fill="#353640" d="M1335.562 1855.275h-.005a2.093 2.093 0 0 1-1.46-.599l-.001-.002a2.078 2.078 0 0 1-.612-1.296l-42.345-382.34a2.085 2.085 0 0 1 1.843-2.302 2.08 2.08 0 0 1 2.302 1.843l40.278 363.672 40.288-363.672a2.079 2.079 0 0 1 2.302-1.843 2.085 2.085 0 0 1 1.843 2.302l-42.356 382.34a2.08 2.08 0 0 1-1.376 1.776 2.087 2.087 0 0 1-.701.121z"/><path fill="#353640" d="M1417.92 1497.605h-164.71a2.086 2.086 0 0 1 0-4.17h164.71a2.086 2.086 0 0 1 0 4.17zm0 65.89h-164.71a2.086 2.086 0 0 1 0-4.17h164.71a2.086 2.086 0 0 1 0 4.17z"/><path fill="#7DA3FB" d="M1335.561 1916.71h103.649v-117.82h-207.29v117.82h103.641z"/><path fill="#353640" d="M1439.21 1821.425h-192.56a2.086 2.086 0 0 1 0-4.17h192.56a2.086 2.086 0 0 1 0 4.17zm0 25.639h-192.56a2.086 2.086 0 0 1 0-4.17h192.56a2.086 2.086 0 0 1 0 4.17zm0 25.641h-192.56a2.086 2.086 0 0 1 0-4.17h192.56a2.086 2.086 0 0 1 0 4.17zm0 25.64h-192.56a2.086 2.086 0 0 1 0-4.17h192.56a2.086 2.086 0 0 1 0 4.17z"/><path fill="#FFF" d="M1518.6 1550.595a2.086 2.086 0 0 1-2.085-2.085c0-22.7-4.147-44.839-12.327-65.802a2.083 2.083 0 0 1 1.185-2.7 2.084 2.084 0 0 1 2.7 1.185c8.369 21.447 12.612 44.097 12.612 67.317a2.086 2.086 0 0 1-2.085 2.085zm-51.82-127.63a2.079 2.079 0 0 1-1.494-.631c-34.375-35.325-80.446-54.779-129.726-54.779a2.086 2.086 0 0 1 0-4.17c50.415 0 97.547 19.902 132.714 56.041a2.085 2.085 0 0 1-1.494 3.539z"/><path fill="#E8A860" d="M1335.561 1263.47h12.409l-12.409 30.21-12.411-30.21zm-285.631 164.91-6.21 10.74 32.38 4.37-19.97-25.86zm120.72-120.73-10.75 6.21 25.86 19.96-4.36-32.37zm494.741 285.64v12.41l-30.221-12.41 30.221-12.41zm-659.651 0v12.41l30.22-12.41-30.22-12.41zm615.46-164.91 6.2 10.74-32.37 4.37 19.96-25.86zm-120.73-120.73 10.75 6.21-25.85 19.96 4.36-32.37z"/><path fill="#D1F0E7" d="M1752.79 697.67c-6.25 3.95-12.21 8.25-17.87 12.83 6.49 14.28 4.811 31.61-5.8 44.57-10.59 12.93-27.229 18-42.49 14.47a189.08 189.08 0 0 0-9.069 20.07c12.739 9.119 19.93 24.949 17.22 41.46-2.71 16.52-14.61 29.239-29.61 33.8.301 7.28 1.02 14.59 2.189 21.89 15.61 1.511 29.771 11.641 35.69 27.3a42.483 42.483 0 0 1 2.75 14.7l37.54-14.18c-2.24-4.31-4.25-8.8-6.01-13.46-24.29-64.32 8.16-136.141 72.48-160.43 64.31-24.28 136.129 8.17 160.42 72.479a127.17 127.17 0 0 1 4.39 14.08l37.54-14.17a42.67 42.67 0 0 1-7.65-12.85c-5.91-15.66-1.97-32.62 8.74-44.07-3.96-6.26-8.25-12.21-12.84-17.88-14.27 6.5-31.6 4.81-44.551-5.79-12.939-10.601-18.01-27.24-14.479-42.5a189.3 189.3 0 0 0-20.069-9.061c-9.121 12.73-24.95 19.931-41.461 17.221-16.52-2.71-29.239-14.61-33.8-29.62-7.28.3-14.59 1.029-21.89 2.189-1.51 15.61-11.641 29.78-27.301 35.69-15.659 5.922-32.619 1.982-44.069-8.738z"/><path fill="#D1F0E7" d="M1703.05 914.06c5.91 15.66 1.97 32.62-8.739 44.07a187.929 187.929 0 0 0 12.83 17.88c14.27-6.5 31.6-4.819 44.56 5.79 12.94 10.601 18.01 27.24 14.479 42.5 6.5 3.4 13.211 6.431 20.061 9.061 9.12-12.73 24.96-19.931 41.46-17.221 16.53 2.711 29.25 14.61 33.81 29.62 7.28-.3 14.58-1.029 21.891-2.189 1.51-15.61 11.63-29.78 27.29-35.69 15.659-5.92 32.63-1.979 44.079 8.74 6.25-3.96 12.211-8.25 17.871-12.84-6.5-14.271-4.811-31.6 5.789-44.561 10.601-12.939 27.24-18.01 42.5-14.479a190.96 190.96 0 0 0 9.07-20.06c-12.74-9.12-19.93-24.961-17.23-41.461 2.711-16.52 14.61-29.239 29.621-33.8a189.69 189.69 0 0 0-2.19-21.899c-15.61-1.511-29.78-11.631-35.69-27.29l-34.279 12.939c24.279 64.32-8.17 136.141-72.48 160.431-64.32 24.279-136.14-8.17-160.42-72.48l-34.283 12.939z"/><path fill="#353640" d="M1867.479 1048.895a2.085 2.085 0 0 1-1.994-1.479c-4.685-15.422-17.464-26.618-33.352-29.218a42.391 42.391 0 0 0-6.854-.562c-13.468 0-26.202 6.563-34.064 17.557a2.088 2.088 0 0 1-2.444.733 200.578 200.578 0 0 1-20.999-9.499 2.084 2.084 0 0 1-1.063-2.316c3.623-15.681-1.853-31.746-14.289-41.927a42.014 42.014 0 0 0-26.548-9.494 42.426 42.426 0 0 0-17.43 3.769 2.086 2.086 0 0 1-2.482-.585 195.697 195.697 0 0 1-13.423-18.71 2.083 2.083 0 0 1 .24-2.537c7.396-7.91 11.525-18.644 11.327-29.448l-.053-1.446a2.211 2.211 0 0 1-.017-.242 11.3 11.3 0 0 0-.031-.497l-.016-.26a12.337 12.337 0 0 1-.045-.518l-.001-.011a2.27 2.27 0 0 1-.019-.141l-.073-.721c-.024-.255-.051-.451-.076-.638a1.72 1.72 0 0 1-.016-.161 44.94 44.94 0 0 0-.33-2.092l-.013-.079a42.024 42.024 0 0 0-2.025-7.232 2.476 2.476 0 0 1-.061-.184c-5.732-14.967-19.184-25.21-35.15-26.751a2.083 2.083 0 0 1-1.858-1.746 197.256 197.256 0 0 1-2.295-22.923 2.084 2.084 0 0 1 1.478-2.081c15.419-4.68 26.619-17.46 29.229-33.353 2.598-15.866-3.915-31.544-16.996-40.917a2.084 2.084 0 0 1-.733-2.44 198.629 198.629 0 0 1 9.49-21.002 2.08 2.08 0 0 1 2.317-1.064 42.008 42.008 0 0 0 9.468 1.081c12.637 0 24.471-5.602 32.468-15.37 10.195-12.451 12.385-29.298 5.715-43.966a2.085 2.085 0 0 1 .586-2.483 195.869 195.869 0 0 1 18.71-13.433 2.086 2.086 0 0 1 2.537.24c7.821 7.312 18.01 11.339 28.688 11.338 5.052 0 10.032-.914 14.801-2.717 15.066-5.684 25.386-19.179 26.933-35.22a2.085 2.085 0 0 1 1.746-1.859 197.184 197.184 0 0 1 22.924-2.294 2.084 2.084 0 0 1 2.081 1.478c4.679 15.418 17.459 26.618 33.353 29.228 2.262.371 4.562.559 6.833.558 13.468 0 26.209-6.563 34.083-17.555a2.083 2.083 0 0 1 2.443-.732 200.368 200.368 0 0 1 21 9.489 2.085 2.085 0 0 1 1.063 2.317c-3.628 15.672 1.848 31.741 14.29 41.938a41.973 41.973 0 0 0 26.531 9.49c5.981 0 12.01-1.305 17.434-3.775a2.086 2.086 0 0 1 2.485.586 198.693 198.693 0 0 1 13.432 18.707 2.086 2.086 0 0 1-.239 2.538c-10.998 11.772-14.303 28.437-8.623 43.491l.08.205c.015.037.027.073.04.11l.049.125.041.107.745 1.769.053.119.596 1.255.049.107.659 1.282c.027.049.059.104.076.139l.022.046c.02.031.038.063.057.096l.22.399.023.044.089.155c.023.042.046.083.066.126l.427.729c.046.062.088.127.127.195l.087.151.047.074 1.206 1.848a40.017 40.017 0 0 0 2.79 3.59c7.073 8.161 16.898 13.225 27.671 14.267.946.091 1.71.81 1.859 1.749a198.655 198.655 0 0 1 2.283 22.911 2.083 2.083 0 0 1-1.476 2.08c-15.415 4.692-26.611 17.477-29.22 33.364-2.6 15.868 3.913 31.542 16.996 40.906a2.085 2.085 0 0 1 .732 2.443 200.668 200.668 0 0 1-9.489 21 2.084 2.084 0 0 1-2.315 1.064 42.084 42.084 0 0 0-9.456-1.076c-12.642 0-24.48 5.601-32.483 15.366-10.195 12.462-12.386 29.313-5.715 43.975a2.084 2.084 0 0 1-.584 2.483 195.748 195.748 0 0 1-18.711 13.434 2.084 2.084 0 0 1-2.537-.241c-7.813-7.313-17.998-11.34-28.678-11.34-5.055 0-10.037.915-14.811 2.718-15.06 5.679-25.383 19.171-26.941 35.211a2.085 2.085 0 0 1-1.746 1.857 196.648 196.648 0 0 1-23.001 2.298zm-42.199-35.43c2.505 0 5.037.208 7.528.617 16.93 2.771 30.65 14.42 36.167 30.573a192.191 192.191 0 0 0 19.284-1.931c2.229-16.921 13.386-31.043 29.435-37.095a45.91 45.91 0 0 1 16.283-2.988 45.97 45.97 0 0 1 30.322 11.376 191.805 191.805 0 0 0 15.744-11.307c-6.53-15.76-3.934-33.571 6.933-46.852 8.798-10.736 21.813-16.894 35.709-16.894 2.955 0 5.909.284 8.805.845a196.445 196.445 0 0 0 7.99-17.685c-13.508-10.385-20.148-27.094-17.378-44.003 2.779-16.93 14.429-30.654 30.573-36.178a194.597 194.597 0 0 0-1.923-19.285c-11.207-1.477-21.383-6.938-28.798-15.495a43.714 43.714 0 0 1-3.071-3.951l-1.347-2.065c-.028-.042-.042-.06-.066-.104l-.03-.052a2.5 2.5 0 0 1-.078-.121l-.632-1.078a2.135 2.135 0 0 1-.066-.125l-.054-.094c-.019-.032-.035-.064-.052-.097l-.104-.188a1.94 1.94 0 0 1-.144-.245l-.075-.152a1.494 1.494 0 0 1-.041-.072l-.778-1.516a2.014 2.014 0 0 1-.067-.15l-.456-.946a4.398 4.398 0 0 1-.056-.12l-.283-.632c-.015-.031-.028-.063-.041-.095l-.644-1.56-.04-.106-.08-.204a1.689 1.689 0 0 1-.043-.119l-.049-.125c-6.061-16.065-2.834-33.771 8.38-46.628a194.094 194.094 0 0 0-11.309-15.747 46.62 46.62 0 0 1-17.667 3.502 46.15 46.15 0 0 1-29.174-10.435c-13.258-10.865-19.32-27.796-16.05-44.514a196.445 196.445 0 0 0-17.685-7.99c-8.71 11.294-22.235 17.991-36.503 17.991-2.496 0-5.022-.206-7.508-.613-16.938-2.781-30.658-14.433-36.169-30.583-6.443.318-12.919.966-19.293 1.931-2.219 16.922-13.371 31.048-29.426 37.104a45.877 45.877 0 0 1-16.274 2.986 46.002 46.002 0 0 1-30.33-11.375 192.099 192.099 0 0 0-15.746 11.307c6.528 15.766 3.932 33.574-6.933 46.842-8.793 10.739-21.803 16.898-35.694 16.898-2.96 0-5.919-.285-8.818-.849a194.16 194.16 0 0 0-7.991 17.684c13.506 10.393 20.147 27.106 17.379 44.014-2.781 16.937-14.434 30.657-30.583 36.168.319 6.446.967 12.92 1.931 19.292 16.912 2.219 31.038 13.371 37.104 29.425.023.062.044.124.061.187a46.044 46.044 0 0 1 2.547 10.262c.006.045.011.09.014.135.029.218.057.442.076.658l.08.75c.013.079.021.158.025.238.008.174.025.349.043.523l.017.27c.014.13.025.34.036.542l.005.107.009.103.061 1.608c.21 11.389-3.915 22.657-11.361 31.221a191.888 191.888 0 0 0 11.299 15.748 46.688 46.688 0 0 1 17.662-3.496 46.193 46.193 0 0 1 29.189 10.438c13.253 10.85 19.316 27.776 16.049 44.503a196.625 196.625 0 0 0 17.684 7.999c8.699-11.29 22.218-17.987 36.486-17.987zm34.223-36.784c-22.694 0-45.021-6.206-64.564-17.947-19.827-11.911-35.92-29.033-46.539-49.515a158.41 158.41 0 0 1-1.462-2.913l-.396-.82a49.686 49.686 0 0 1-.777-1.658 82.698 82.698 0 0 1-.773-1.701l-.382-.871a155.5 155.5 0 0 1-.995-2.346l-.184-.465c-.348-.853-.694-1.739-1.03-2.625l-.064-.178c-11.801-31.25-10.726-65.264 3.043-95.741 13.768-30.477 38.579-53.767 69.865-65.581 14.242-5.378 29.114-8.105 44.204-8.105 25.173 0 49.533 7.506 70.446 21.706 21.39 14.523 37.54 35.03 46.706 59.302a131.05 131.05 0 0 1 2.063 5.904l.125.395c.248.762.482 1.542.717 2.322l.793 2.79c.132.473.236.87.34 1.261l.088.33c16.017 61.952-17.101 125.725-77.029 148.356-14.241 5.375-29.11 8.1-44.195 8.1zm-.055-246.296c-14.585 0-28.961 2.636-42.731 7.836-30.243 11.42-54.229 33.935-67.538 63.396s-14.349 62.342-2.929 92.586l.063.176c.31.815.644 1.669.987 2.513l.179.453c.301.725.627 1.495.952 2.244l.379.865c.236.54.482 1.07.729 1.601.266.594.505 1.101.753 1.607l.396.821c.458.937.931 1.883 1.414 2.82 20.854 40.22 62.008 65.207 107.4 65.207 14.58 0 28.953-2.635 42.721-7.832 57.933-21.877 89.947-83.525 74.468-143.397l-.085-.322c-.099-.373-.198-.751-.304-1.128l-.792-2.789c-.225-.749-.449-1.498-.693-2.246l-.126-.398a125.814 125.814 0 0 0-1.991-5.702c-17.688-46.84-63.201-78.311-113.252-78.311z"/><path fill="#7DA3FB" d="M1794.84 787.47h47.891a26.056 26.056 0 0 1-2.641-11.47c0-14.44 11.7-26.14 26.141-26.14 14.439 0 26.14 11.699 26.14 26.14 0 4.12-.95 8.01-2.64 11.47h47.89v47.891a26.059 26.059 0 0 0-11.47-2.641c-14.431 0-26.141 11.7-26.141 26.141 0 14.439 11.71 26.14 26.141 26.14 4.119 0 8.01-.95 11.47-2.64v47.89h-47.89a26.069 26.069 0 0 0 2.64-11.47c0-14.431-11.7-26.141-26.14-26.141-14.44 0-26.141 11.71-26.141 26.141 0 4.12.95 8.01 2.641 11.47h-47.891v-47.89a26.069 26.069 0 0 1-11.47 2.64c-14.44 0-26.14-11.7-26.14-26.14 0-14.44 11.699-26.141 26.14-26.141 4.12 0 8.01.95 11.47 2.641V787.47z"/><path fill="#353640" d="M1842.73 932.335h-47.891a2.086 2.086 0 0 1-2.085-2.085v-47.89a2.086 2.086 0 0 1 4.17 0v45.805h45.806a2.086 2.086 0 0 1 0 4.17zm57.28-71.39a2.086 2.086 0 0 1-2.085-2.085c0-14.014 7.15-20.955 13.149-24.31 9.57-5.352 21.567-4.695 27.638-.966a2.086 2.086 0 0 1-2.183 3.553c-4.954-3.044-15.549-3.348-23.419 1.053-5.024 2.811-11.015 8.678-11.015 20.67a2.085 2.085 0 0 1-2.085 2.085z"/><path fill="#FCCAC3" d="M959.18 1712.01c28.42-5.79 91.101-17.05 123.58-24.7 0 0 17.03-9.659 32.551-11.5 15.529-1.85 26.14-1.77 24.029 5.011-.46 1.47-2.529 3.41-5.49 5.55 16.19 4.65 54.391 17.38 61.11 25.75 7.851 9.79-67.81-7.08-67.81-7.08s32.84 10.03 39.67 16.141c6.83 6.109 20.47 28.319 14.59 33.039-5.87 4.711-22.62-21.77-22.62-21.77l-29.22-7.14s26.04 16.609 27.95 18.779c1.899 2.171 14.149 25.66 9.12 29.221-5.041 3.56-18.75-19.561-18.75-19.561l-23.33-8.81s16.479 17.52 17.739 19.89c1.25 2.38-4.59 27.99-6.71 27.76-2.119-.239-6.68-23.78-6.68-23.78l-18.7-10.26s-13.79 16.7-44.37-.939l-104.649 29.25c0-.001-39.95-49.391-2.01-74.851z"/><path fill="#2A1D19" d="M1074.109 1743.776a2.085 2.085 0 0 1-.6-4.082c1.148-.351 27.23-8.617 25.282-35.182a2.086 2.086 0 0 1 1.207-2.046c17.086-7.879 36.225-18.632 37.352-22.264.368-1.185.053-1.563-.066-1.706-1.609-1.936-8.918-2.143-21.727-.617-14.91 1.768-31.601 11.148-31.768 11.243a2.075 2.075 0 0 1-.52.209c-.707.178-71.275 17.849-123.817 24.745a2.086 2.086 0 0 1-.543-4.135c50.671-6.65 118.261-23.388 123.076-24.588 2.272-1.262 18.173-9.849 33.08-11.615 15.507-1.847 22.637-1.261 25.425 2.091.859 1.033 1.703 2.845.842 5.61-2.104 6.783-28.344 19.575-38.299 24.216 1.141 28.808-28.02 37.94-28.319 38.03a2.056 2.056 0 0 1-.605.091z"/><path fill="#FD3E42" d="M1372.58 2103.36h-941.8c-68.63 0-124.78 56.149-124.78 124.779 0 68.631 56.15 124.78 124.78 124.78h941.8V2103.36z"/><path fill="#EFF3F7" d="M1372.58 2113.7H605.4c-62.95 0-114.44 51.5-114.44 114.439 0 62.94 51.49 114.44 114.44 114.44h767.18V2113.7z"/><path fill="#353640" d="M1310.311 2302.445H886.939a2.086 2.086 0 0 1 0-4.17h423.371a2.086 2.086 0 0 1 .001 4.17zm0-48.14H1190.77a2.086 2.086 0 0 1 0-4.17h119.541a2.086 2.086 0 0 1 0 4.17zm0-48.15H1073.72a2.086 2.086 0 0 1 0-4.17h236.591a2.086 2.086 0 0 1 0 4.17zm0-48.15h-53.541a2.086 2.086 0 0 1 0-4.17h53.541a2.086 2.086 0 0 1 0 4.17zm-127.011 0H653.38a2.086 2.086 0 0 1 0-4.17h529.92a2.086 2.086 0 0 1 0 4.17zm-38.6 96.28H629.17a2.086 2.086 0 0 1 0-4.17h515.53a2.086 2.086 0 0 1 0 4.17zm-315.05 48.16H590.53a2.086 2.086 0 0 1 0-4.17h239.12a2.086 2.086 0 0 1 0 4.17zm14.08-96.29H607.14a2.086 2.086 0 0 1 0-4.17h236.59a2.086 2.086 0 0 1 0 4.17z"/><path fill="#E8A860" d="M1479.78 2561.21H365.57c-57.28 0-104.15-46.86-104.15-104.14s46.87-104.15 104.15-104.15h1114.21v208.29z"/><path fill="#EFF3F7" d="M1479.78 2552.58H732.06c-52.53 0-95.511-42.979-95.511-95.51 0-52.53 42.98-95.511 95.511-95.511h747.72v191.021z"/><path fill="#353640" d="M1420.23 2398.875h-404.94a2.086 2.086 0 0 1 0-4.17h404.94a2.086 2.086 0 0 1 0 4.17zm0 40.189h-114.34a2.086 2.086 0 0 1 0-4.17h114.341a2.086 2.086 0 0 1-.001 4.17zm0 40.181h-226.291a2.086 2.086 0 0 1 0-4.17h226.291a2.086 2.086 0 0 1 0 4.17zm0 40.191h-51.221a2.086 2.086 0 0 1 0-4.17h51.221a2.086 2.086 0 0 1 0 4.17zm-121.48 0H791.9a2.086 2.086 0 0 1 0-4.17h506.85a2.086 2.086 0 0 1 0 4.17zm-36.92-80.361H768.75a2.086 2.086 0 0 1 0-4.17h493.08a2.086 2.086 0 0 1 0 4.17zm-301.33-40.2H731.79a2.086 2.086 0 0 1 0-4.17H960.5a2.086 2.086 0 0 1 0 4.17zm13.47 80.37H747.68a2.086 2.086 0 0 1 0-4.17h226.29a2.086 2.086 0 0 1 0 4.17z"/><path fill="#30B9C4" d="M690.09 1589.79s-29.59-141.95 60.11-128.73c0 0 34.09 19.61 58.09 106.601 24 87 37.24 181.58 38.08 211.06.729 25.771-24.7 59.7-81.54 59.51-30.53-7.569-37.34-78.14-47.74-124.97l-27-123.471z"/><path fill="#2A1D19" d="M690.09 1589.8s-5.84-28.05-4.46-58.04l99.01 57.03s16.62 159.3 18.13 243.45c-10.6 3.79-23.209 6.04-37.939 5.989-30.53-7.569-37.34-78.14-47.74-124.97L690.09 1589.8z"/><path fill="#30B9C4" d="M764.83 1838.229c10.06.7 21.3.221 33.75-1.779 71.57-11.44 235.45-43.021 235.45-43.021s5.46-63.609-3.771-104.89l-211.04 31.979c-92.349 18.112-90.039 100.002-54.389 117.711z"/><path fill="#2A1D19" d="M764.83 1838.229c10.06.7 21.3.221 33.75-1.779 22.96-3.67 55.43-9.41 88.939-15.521-55.229-2.53-106.92-16.68-145.34-30.479-1.699 20.98 7.441 40.22 22.651 47.779z"/><path fill="#30B9C4" d="M572.96 1422.32s-109.07 60.989-121.979 75.34c0 0-44.49 54.53 10.039 410.439h299.94s17.94-244.689 23.68-319.31c5.74-74.63-34.439-127.73-34.439-127.73l-98.98-46.5c-.001.001-24.441 39.321-78.261 7.761z"/><path fill="#2A1D19" d="M441.58 1524.44c-9.19 42.17-17.07 145.35 19.439 383.659h82.67C589.11 1681.93 499.78 1570.89 441.58 1524.44zm321.539 382.784-4.159-.307c.183-2.473 18.28-247.65 20.861-282.143 2.566-34.323-3.704-101.861-3.767-102.54a2.085 2.085 0 1 1 4.152-.389c.064.682 6.367 68.565 3.774 103.239-2.581 34.492-20.678 279.667-20.861 282.14zM610.29 1476.295a2.09 2.09 0 0 1-.774-.149c-14.621-5.848-35.736-28.615-36.628-29.582a2.085 2.085 0 0 1 3.064-2.828c.212.229 21.367 23.04 35.112 28.538a2.086 2.086 0 0 1-.774 4.021zm53.141-28.82a2.086 2.086 0 0 1-2.025-2.591c2.04-8.167.681-23.913.667-24.071a2.084 2.084 0 1 1 4.153-.367c.06.674 1.436 16.602-.774 25.449a2.085 2.085 0 0 1-2.021 1.58z"/><path fill="#FCCAC3" d="m737.92 2354.28 109.43-131.131 64.771 54.061-108.96 128.64c-61.061 22.4-55.791-5.58-65.241-51.57z"/><path fill="#D0D3D4" d="M736.811 2351.78s13.67 36.68 66.35 54.07l18.359 33.56s56.65 55.09 60.07 70.97-12.16 35.17-12.16 35.17l-184.86-154.27s26.07-36.86 52.241-39.5z"/><path fill="#2A1D19" d="m856.203 2561.12-184.868-154.265 13.07-15.664 184.87 154.266zm-77.933-138.53 32.851-2.2c-.001 0-14.501-10.11-32.851 2.2zm19.37 24.23 23.88-7.41s-13.19-7.889-23.88 7.41z"/><path fill="#FCCAC3" d="m1078.33 2477.05-54.19-161.97 80-26.771 52.33 160.261c-12.97 63.73-34.031 44.57-78.14 28.48z"/><path fill="#D0D3D4" d="M1075.62 2476.68s38.399 7.61 80.85-28.11l38.2 1.98s76.63-19.311 91.939-13.89c15.311 5.42 23.561 28.81 23.561 28.81l-228.34 76.4s-17.69-41.53-6.21-65.19z"/><path fill="#2A1D19" d="m1316.673 2484.874-228.33 76.399-6.473-19.346 228.33-76.399zm-159.013-6.334 15.359-29.11c.001 0-16.208 7.04-15.359 29.11zm30.79-3.769 6.22-24.221s-13.64 7.09-6.22 24.221zm-399.7-377.211c46.02.631 255.89 3.49 255.89 3.49 169.79 2.32 164.721-178.92 75.63-190.83l-359.31-2.119c-278.43-4.921-170.29 186.759 27.79 189.459z"/><path fill="#2A1D19" d="M1028.07 1989.76s-219.36 257.38-277.29 326.03l79.319 85.24 318.2-333.61c44.83-42.15 43.771-108.9-9.069-121.19-52.84-12.29-111.16 43.53-111.16 43.53z"/><path fill="#FCCAC3" d="m652.97 1381.41.72 43.41s2.15 35.52-28.35 39.109c-30.49 3.591-52.38-41.609-52.38-41.609l11.479-57.771c0 .001 47.811-29.069 68.531 16.861z"/><path fill="#2A1D19" d="m652.97 1381.41.72 43.41s.101 1.64-.05 4.229c-26.38 5.29-56.59-2.949-76.029-30.12l6.829-34.38c-.001.001 47.81-29.069 68.53 16.861z"/><path fill="#321C66" d="M461.02 1908.1s-26.31 55.2.961 128.391c27.26 73.189 125.569 66.729 172.93 66.729h263.34c82.54 0 142.53-25.38 123.42-80.37 0 0-22.96-104.05-124.85-116.239L461.02 1908.1z"/><path fill="#2A1D19" d="M829.65 2039.479s22.239 38.391 53.449 47.36l-53.449-47.36zm-334.732-81.524a2.085 2.085 0 0 1-.128-4.166c55.707-3.475 83.59-39.008 83.865-39.366a2.086 2.086 0 0 1 3.312 2.534c-.286.374-29.235 37.396-86.917 40.994a1.979 1.979 0 0 1-.132.004zm75.702-10.695-34.8 27.271c0-.001 28.34-1.791 34.8-27.271z"/><path fill="#321C66" d="M898.25 2103.22s111.939 284.15 152.12 367.381l113.37-38.75-142.07-409c-20.77-59.811-83.939-86.841-117.66-42.351-33.73 44.49-5.76 122.72-5.76 122.72z"/><path fill="#2A1D19" d="M1011.551 2388.706a2.086 2.086 0 0 1-1.932-1.3l-122.63-301.34a2.085 2.085 0 1 1 3.862-1.572l122.63 301.34a2.087 2.087 0 0 1-1.93 2.872z"/><path fill="#30B9C4" d="M523.811 1619.64s15.06-144.229-72.83-121.979c0 0-31.931 22.96-47 111.94-15.07 88.97-18.66 184.399-16.5 213.819 1.88 25.71 30.609 56.891 87.14 50.95 29.6-10.63 29.229-81.52 34.84-129.16l14.35-125.57z"/><path fill="#2A1D19" d="M509.3 1748.675a2.083 2.083 0 0 1-1.525-.663c-.158-.169-16.284-17.032-41.524-14.835a2.077 2.077 0 0 1-2.257-1.897 2.085 2.085 0 0 1 1.897-2.257c20.884-1.813 35.67 8.127 41.804 13.256 1.928-16.85 9.347-81.708 13.034-113.994 4.175-36.564-.084-64.272-.128-64.549a2.086 2.086 0 0 1 4.119-.652c.044.281 4.396 28.511.152 65.673-4.26 37.3-13.5 118.07-13.5 118.07a2.084 2.084 0 0 1-2.072 1.848z"/><path fill="#FCCAC3" d="M626.04 1728.71s120.3-38.57 157.09-47.24c0 0 17.19-4.52 26.71-3.529 9.51.989 68 12.279 77.91 22.199 9.91 9.91-76.12.391-76.12.391s37.66 7.14 45.99 13.09c8.319 5.949 26.17 28.939 20.22 34.89s-27.76-21.41-27.76-21.41l-33.3-4.359s30.93 15.26 33.3 17.439c2.38 2.181 18.84 26.76 13.68 31.32-5.15 4.56-23.189-19.431-23.189-19.431l-26.961-6.93s20.421 17.439 22.101 19.92c1.69 2.48-1.68 31.62-4.06 31.62-2.381 0-10.311-25.58-10.311-25.58l-22-9.12s-13.28 20.23-49.359 4.37l-112.601 45.2s-50.36-49.96-11.34-82.84z"/><path fill="#30B9C4" d="M465.59 1875.021c10.65-.4 22.4-2.181 35.26-5.671 73.91-20.1 242.53-71.76 242.53-71.76s-1.43-67.45-15.78-109.79l-218.14 57.41s-71.76 22.24-83.95 66.73c-10.84 39.53 15.63 62.07 40.08 63.081z"/><path fill="#2A1D19" d="M465.587 1877.105a2.085 2.085 0 0 1-.226-4.157c.268-.029 27.228-3.079 65.668-14.211 36.688-10.612 193.021-57.523 210.225-62.687-.296-10.418-2.505-69.836-14.978-105.747l-151.917 39.982a2.086 2.086 0 0 1-1.062-4.033l153.77-40.47a2.08 2.08 0 0 1 2.489 1.302c14.473 39.629 15.894 109.764 15.906 110.468a2.084 2.084 0 0 1-1.485 2.034c-1.727.519-173.127 51.972-211.79 63.156-38.814 11.239-66.101 14.32-66.372 14.35-.075.01-.151.013-.228.013z"/><path fill="#2A1D19" d="M714.42 1701.09s9.77 60.33 11.2 86.16c0 0-17.58-32.65-11.2-86.16z"/><path fill="#353640" d="M578.41 1883.61H864v24.489H578.41z"/><path fill="#949899" d="M874.246 1641.79h285.584l-78.427 266.331H795.818z"/><path fill="#353640" d="M837.312 1769.315a2.085 2.085 0 0 1-2.001-2.675l36.939-125.439a2.084 2.084 0 0 1 2-1.496h243.04a2.086 2.086 0 0 1 0 4.17H875.81l-36.499 123.943a2.086 2.086 0 0 1-1.999 1.497z"/><path fill="#2A1D19" d="M803.04 1885.695H578.41a2.086 2.086 0 0 1 0-4.17h224.63a2.086 2.086 0 0 1 0 4.17z"/><path fill="#353640" d="M1081.41 1910.185h-86.1a2.086 2.086 0 0 1 0-4.17h84.54l67.999-230.924a2.085 2.085 0 0 1 4 1.178l-68.439 232.42a2.086 2.086 0 0 1-2 1.496z"/><path fill="#FFF" d="M996.702 1740.833c12.675 0 20.362 13.166 17.17 29.407s-16.055 29.407-28.729 29.407c-12.676 0-20.363-13.166-17.171-29.407s16.055-29.407 28.73-29.407z"/><path fill="#2A1D19" d="M536.5 1276.05s109.67-3.31 139.12-60.609c29.45-57.301-45.65-112.32-86.78-55.62 0 0-107.49 12.58-96 74.78 0 0-59.54 21.859 56.75 136.939 0 0 4.39-44.2-13.09-95.49z"/><path fill="#FCCAC3" d="M667.98 1223.62s37.689 97.12 19.159 150.05c-18.54 52.931-114.02 71.521-144.609-19.05-30.58-90.57-15.87-134.22 37.05-161.521 52.92-27.299 88.4 30.521 88.4 30.521z"/><path fill="#2A1D19" d="M536.5 1276.05s109.67-3.31 139.12-60.609c48.61-120.67-316.31-32.2-126.03 156.1 0-.001 4.39-44.201-13.09-95.491z"/><path fill="#FCCAC3" d="M559.98 1322.42s-23.471-19.09-42.291-3.8c-18.819 15.28 2.75 63.3 50.49 41.45l-8.199-37.65z"/><path fill="#2A1D19" d="M649.092 1325.602c-2.314 0-4.796-.225-7.412-.723a2.085 2.085 0 1 1 .78-4.096c11.461 2.184 18.723-1.641 20.064-4.174.356-.674.294-1.12-.229-1.643-4.568-4.56-20.942-34.388-22.794-37.774a2.085 2.085 0 1 1 3.659-2.001c4.953 9.055 18.575 33.323 22.083 36.825 1.815 1.814 2.176 4.26.968 6.544-2.027 3.826-8.372 7.041-17.119 7.042zm.998 24.573c-17.775 0-29.033-13.709-29.188-13.902a2.085 2.085 0 1 1 3.255-2.607c.811 1.007 19.581 23.655 47.17 5.133a2.084 2.084 0 1 1 2.324 3.462c-8.666 5.818-16.611 7.914-23.561 7.914zm-61.67-72.404c2.23-.601 38.09-6.69 39.1-12.971 1.01-6.29-25.13-11.949-39.1 12.971zm91.68-28.821c-1.619.35-25.63 9.04-29.689 4.199-4.071-4.839 7.829-19.579 29.689-4.199zm-64.831 38.943a4.844 4.844 0 0 1 5.729 3.757l1.938 9.307a4.845 4.845 0 0 1-9.487 1.973l-1.937-9.307a4.844 4.844 0 0 1 3.757-5.73zm49.418-18.05a4.844 4.844 0 0 1 5.729 3.757l1.938 9.307a4.845 4.845 0 0 1-9.487 1.973l-1.937-9.307a4.844 4.844 0 0 1 3.757-5.73z"/><path fill="#ED6056" d="M648.052 1361.113c-7.755 0-12.328-4.545-12.57-4.793a2.084 2.084 0 0 1 2.97-2.927c.267.266 6.025 5.822 15.61 2.468a2.084 2.084 0 1 1 1.376 3.936c-2.703.946-5.174 1.316-7.386 1.316z"/><path fill="#2A1D19" d="M551.142 1347.375a2.086 2.086 0 0 1-1.744-.939 43.935 43.935 0 0 0-3.814-5.007c-7.581-3.414-14.518 1.096-14.813 1.293a2.088 2.088 0 0 1-2.89-.575 2.08 2.08 0 0 1 .564-2.886c.268-.181 4.847-3.203 11.007-3.274-9.045-6.115-17.061-3.964-17.169-3.933a2.085 2.085 0 1 1-1.144-4.01c.728-.208 17.961-4.839 31.744 16.099a2.085 2.085 0 0 1-1.741 3.232z"/><path fill="#9CCA76" d="M633.37 943.11h221.45c13.109 0 23.83 10.72 23.83 23.83v51.85c0 13.11-10.721 23.83-23.83 23.83H657.95l-48.41 40.65V966.94c0-13.11 10.72-23.83 23.83-23.83z"/><path fill="#353640" d="M609.54 1085.355a2.083 2.083 0 0 1-2.084-2.085V960.54c0-15.012 12.213-27.225 27.225-27.225a2.086 2.086 0 0 1 0 4.17c-12.712 0-23.055 10.342-23.055 23.055v118.257l47.645-40.004a2.087 2.087 0 0 1 1.341-.488h207.7c12.712 0 23.055-10.342 23.055-23.055v-54.71c0-12.712-10.342-23.055-23.055-23.055a2.086 2.086 0 0 1 0-4.17c15.012 0 27.225 12.213 27.225 27.225v54.71c0 15.012-12.213 27.225-27.225 27.225H661.37l-50.489 42.393c-.383.321-.86.487-1.341.487z"/><path fill="#353640" d="M842.91 967.975H645.28a2.086 2.086 0 0 1 0-4.17h197.63a2.086 2.086 0 0 1 0 4.17zm0 26.97H645.28a2.086 2.086 0 0 1 0-4.17h197.63a2.086 2.086 0 0 1 0 4.17zm-44.15 26.98H645.28a2.086 2.086 0 0 1 0-4.17h153.48a2.086 2.086 0 0 1 0 4.17z"/><path fill="#B6D563" d="M1981.37 2187.92s-.58 59.47 38.14 68.08c38.71 8.601 69.83 29.12 97.29 22.5 0 0-27.22-138.229-135.43-90.58z"/><path fill="#9CCA76" d="M1537.72 2374.71s33.12-6.3 54.3-53.29c21.17-46.99 63.53-97.3 148.25-58.91 84.72 38.389-59.581 177.73-202.55 112.2zm458.7-210.16s33.77-20.899 39.53-101.96c5.75-81.06 56.54-146.52 56.54-146.52s62.91 28.41 44.529 123.989c-18.369 95.581-140.599 124.491-140.599 124.491z"/><path fill="#B6D563" d="M1661.641 1971.11s-58.031 170.39 123.289 183.31c0 0 18.41-148.691-123.289-183.31z"/><path fill="#2A1D19" d="M1901.11 2395.646a2.086 2.086 0 0 1-1.965-1.389c-35.014-98.669-81.915-126.732-115.095-132.9-34.702-6.446-70.343 8.218-97.788 40.24-28.979 33.807-57.258 50.545-75.877 58.634-20.302 8.819-33.596 9.574-34.151 9.602a2.074 2.074 0 0 1-2.187-1.978 2.085 2.085 0 0 1 1.978-2.187c.66-.037 52.861-3.546 107.071-66.785 13.403-15.639 29.455-27.751 46.419-35.027 18.216-7.814 36.82-10.032 55.297-6.599 22.948 4.266 44.394 17.054 63.74 38.009 21.438 23.219 39.781 56.055 54.522 97.597a2.085 2.085 0 0 1-1.964 2.783z"/><path fill="#2A1D19" d="M1901.108 2395.645a2.085 2.085 0 0 1-2.084-2.046c-.007-.357-.534-36.22 10.982-82.286 10.639-42.556 34.026-102.833 85.025-148.318 50.154-44.737 72.851-85.826 83.058-112.418 11.047-28.779 10.247-47.234 10.238-47.418a2.086 2.086 0 0 1 1.974-2.189c1.117-.057 2.129.819 2.19 1.97.041.774.884 19.314-10.398 48.842-10.351 27.09-33.375 68.914-84.286 114.325-50.207 44.779-73.259 104.23-83.755 146.219-11.384 45.536-10.865 80.845-10.858 81.196a2.086 2.086 0 0 1-2.046 2.124l-.04-.001z"/><path fill="#2A1D19" d="M1901.11 2395.645a2.086 2.086 0 0 1-2.085-2.085c0-133.348-33.86-180.396-105.007-229.948-73.754-51.358-106.293-123.254-106.613-123.975a2.084 2.084 0 1 1 3.811-1.693c.315.71 32.424 71.579 105.186 122.246 41.342 28.793 65.694 54.765 81.43 86.84 17.542 35.759 25.364 80.95 25.364 146.53a2.087 2.087 0 0 1-2.086 2.085z"/><path fill="#2A1D19" d="M1901.108 2395.645a2.084 2.084 0 0 1-2.08-1.979c-5.941-116.021 11.767-184.288 52.631-202.902 21.861-9.957 50.619-5.132 83.164 13.965 24.336 14.279 42.533 31.716 42.714 31.891a2.085 2.085 0 0 1-2.894 3.002c-.706-.681-71.26-67.839-121.26-45.06-17.677 8.055-30.983 26.554-39.551 54.985-10.214 33.896-13.793 82.313-10.64 143.906a2.083 2.083 0 0 1-2.084 2.192z"/><path fill="#E8A860" d="M1783.16 2393.56h235.91v41.19h-235.91z"/><path fill="#FFE072" d="m1807.93 2434.75 22.4 126.46h141.561l22.399-126.46z"/><path fill="#2A1D19" d="M1938.311 2563.295h-107.98a2.085 2.085 0 0 1-2.053-1.722l-22.4-126.46a2.083 2.083 0 0 1 2.053-2.448h211.131a2.086 2.086 0 0 1 0 4.17h-208.645l21.662 122.29h106.232a2.086 2.086 0 0 1 0 4.17zm80.75-167.65H1816.88a2.086 2.086 0 0 1 0-4.17h202.181a2.086 2.086 0 0 1 0 4.17zM2377.16 933.96c.72-6.46-50.95-90.41-17.221-138.49 33.721-48.069 144.94-13.63 183.69 42.34 0 0 19.37-29.42 42.33-22.25 22.96 7.181 44.49 106.2-23.68 71.761 0 0 31.58 20.81 34.45 72.47 2.869 51.67 111.93 74.63 78.93 123.42-33.01 48.8-177.24 81.8-275.54 17.23-98.309-64.59-110.51-95.441-22.959-166.481z"/><path fill="#353640" d="M2281.91 1433.19c4.47-53.971 61.14-93.9 154.3 6.039 0 0 23.82 70.631-1.101 186.551-10.939 50.89-42.26 215.89-73.959 385.029-22.69 92.25-149.061 118.301-148.271-18.5 20.291-287.359 41.791-564.619 69.031-559.119z"/><path fill="#2A1D19" d="M2415.492 1726.255a2.083 2.083 0 0 1-1.695-.868c-32.731-45.528-52.09-104.872-52.281-105.466a2.085 2.085 0 1 1 3.969-1.281c.189.588 19.356 59.327 51.699 104.313a2.085 2.085 0 0 1-1.692 3.302z"/><path fill="#353640" d="M2379.98 1501.86c-6.58-53.971 62.18-162.57 175.789-62.631 0 0 38.28 70.62 37.08 186.551-.51 49.22-5.109 205.21-10.239 368.439-2.311 88.891-129.011 87.851-151.86 10.891l-50.77-503.25z"/><path fill="#2A1D19" d="M2418.157 1882.355a2.084 2.084 0 0 1-2.071-1.876l-30.58-302.98a2.083 2.083 0 0 1 1.865-2.283c1.131-.123 2.167.719 2.283 1.865l30.58 302.98a2.083 2.083 0 0 1-2.077 2.294z"/><path fill="#FCCAC3" d="m2083.22 2540.81 41.69-32.55 52.729-27.47 29.32-172.39 82.13 2.149-41.4 170.29c0 .001-46.539 116.501-164.469 59.971z"/><path fill="#FD3E42" d="M2247.689 2480.84s-64.529 42.271-90.229 49.69-32.55-22.271-32.55-22.271-66.82 31.41-75.38 46.83c-8.57 15.41 171.319-2.86 202.159-5.14 30.831-2.289 8.561-60.539-4-69.109z"/><path fill="#2A1D19" d="M2148.358 2544.939c-1.85 0-3.46-.245-4.798-.769-20.149-7.885-28.942-22.827-29.307-23.46a2.086 2.086 0 0 1 3.613-2.084c.126.216 8.536 14.352 27.214 21.661 15.33 5.993 83.342-36.389 108.252-53.226a2.085 2.085 0 1 1 2.336 3.456c-8.732 5.902-81.314 54.422-107.31 54.422z"/><path fill="#FCCAC3" d="m2392.03 2540.81 41.689-32.55 58.89-30.68-9.129-166.18 70.17 1.55 2.85 167.89s-46.54 116.5-164.47 59.97z"/><path fill="#FD3E42" d="M2556.5 2480.84s-64.53 42.271-90.23 49.69c-25.699 7.42-32.55-22.271-32.55-22.271s-66.819 31.41-75.38 46.83c-8.57 15.41 171.32-2.86 202.16-5.14 30.83-2.289 8.561-60.539-4-69.109z"/><path fill="#2A1D19" d="M2457.168 2544.939c-1.85 0-3.46-.245-4.798-.769-20.149-7.885-28.951-22.827-29.315-23.459a2.085 2.085 0 0 1 3.611-2.086c.12.206 8.539 14.35 27.225 21.662 15.331 5.987 83.342-36.388 108.253-53.226a2.085 2.085 0 1 1 2.336 3.456c-8.734 5.902-81.316 54.422-107.312 54.422z"/><path fill="#FCCAC3" d="m2035.59 1239.99-55.199-44.141s-9.98-18.939-36.051-34.819c-26.07-15.891-49.48-34.71-56.13-31.41-6.66 3.31 37.76 42.689 37.76 42.689s-12.5 1.08-16.78 4.79c-4.279 3.71 1.95 10.29 1.95 10.29s-10.29 3.931-11.409 7.25c-1.11 3.32 4.02 9.261 4.02 9.261s-5.78 1.1-7.061 6.47c-1.279 5.38 44.11 29.74 59.431 22.77l50.159 42.29c-.001 0 39.579 8.65 29.31-35.44z"/><path fill="#2A1D19" d="m1939.16 1220.37-35.41-16.47s14.141 19.11 35.41 16.47zm10.11-11.47-38.399-21.57c-.001 0 14.249 22.7 38.399 21.57zm11.39-14.46-34.59-22.291s12.01 21.981 34.59 22.291z"/><path fill="#FCCAC3" d="M1992.98 1205.42s-20.641-26.21-28.511-28.22c-7.86-2-34.02 7.22-36.39 10.63-2.37 3.42 17.9 9.01 30.46 3.17 0 0-20.101 28.71 1.37 45.71 21.461 17 53.78-3.13 33.071-31.29z"/><path fill="#2A1D19" d="M1968.18 1180.53c3.09.79 3.17-.391.09-1.181-9.649-2.449-37.479.33-42.18 7.101-.55.79-.73 1.64-.58 2.529l.051.211c.319 1.34 1.489 2.539 3.3 3.489 1.38.73 3.27 1.42 5.46 1.96 5.22 1.301 12.41 1.88 18.979.561-3.78 7.42-7.71 20.59-2.02 32.74 1.37 2.88 2.069 2.63.7-.25-7.11-15.181 8.539-35.28 8.569-35.341.46-.68.56-1.579.19-2.38a2.42 2.42 0 0 0-3.221-1.16c-6.699 3.11-15.88 2.67-22.029 1.141-1.801-.45-3.311-.99-4.37-1.551l-.061-.029c4.522-3.02 33.002-8.891 37.122-7.84z"/><path fill="#FD3E42" d="M2228.689 1400.29s81.32-127.96 108.83-200.91c27.511-72.95 12.561-135.14-41.26-134.54 0 0-26.31 19.13-49.63 55.61-23.319 36.47-87.899 179.99-87.899 179.99-50.63 103.42 27.56 134.01 62.75 108.159 2.52-2.37 4.94-5.12 7.209-8.309z"/><path fill="#2A1D19" d="M2148.498 1327.356a2.086 2.086 0 0 1-1.893-2.955c20.929-45.634 69.415-150.916 69.902-151.974a2.085 2.085 0 1 1 3.787 1.744c-.43.934-38.215 82.979-61.479 133.626 6.501-6.589 15.518-12.951 26.847-14.367a2.085 2.085 0 1 1 .517 4.138c-22.557 2.82-35.687 28.382-35.816 28.64a2.087 2.087 0 0 1-1.865 1.148z"/><path fill="#FD3E42" d="m2158.73 1300.44-157.86-101.66-49.03 70.56 188.36 136.94s49.31 32.35 81.28 2.319c16.189-18.069 8.02-54.59-11.49-69.47-22.72-17.339-51.26-38.69-51.26-38.689z"/><path fill="#2A1D19" d="M2173.672 1343.925a2.086 2.086 0 0 1-2.055-2.453c3.751-20.925-12.571-37.781-14.193-39.393l-155.99-100.456-47.882 68.907a2.084 2.084 0 1 1-3.423-2.38l49.03-70.56a2.085 2.085 0 0 1 2.841-.563l157.86 101.66c.108.07.21.149.304.238.814.77 19.888 19.132 15.56 43.282a2.089 2.089 0 0 1-2.052 1.718z"/><path fill="#FD3E42" d="M2296.26 1064.84s-32.29 24.76-38.27 120.76c-7.61 49.13-5.141 96.57 13.649 141.29l10.271 106.301h273.859s51.431-244.561 17.94-337.53c-76.659-60.811-184.659-51.731-277.449-30.821z"/><path fill="#2A1D19" d="M2278.547 1400.545a2.084 2.084 0 0 1-2.072-1.885l-6.69-69.301c-26.371-63.896-13.98-143.296-13.853-144.092a2.08 2.08 0 0 1 2.391-1.726 2.086 2.086 0 0 1 1.727 2.39c-.127.786-12.361 79.285 13.707 142.119.079.191.13.393.149.599l6.72 69.61a2.085 2.085 0 0 1-2.079 2.286zm100.512-314.63a2.084 2.084 0 0 1-2.074-1.896c-1.842-20.172 6.211-33.959 6.555-34.537a2.084 2.084 0 0 1 3.584 2.13c-.077.131-7.698 13.267-5.986 32.027a2.086 2.086 0 0 1-2.079 2.276zm54.711 28.411a2.084 2.084 0 0 1-.745-4.032c33.278-12.738 57.512-53.935 57.753-54.35a2.085 2.085 0 0 1 3.607 2.094c-1.013 1.745-25.198 42.879-59.869 56.15a2.106 2.106 0 0 1-.746.138z"/><path fill="#FCCAC3" d="m2405.83 1003.08-6.08 46.51s-19.03 24.32-3.79 48.101c15.25 23.779 80.479-44.07 80.479-44.07l-5.43-82.83c.001-.001-61.539-13.071-65.179 32.289z"/><path fill="#2A1D19" d="m2405.83 1003.08-4.24 32.42c23.09 23.85 63.561-22.68 70.79-43.79l-1.37-20.92s-61.54-13.07-65.18 32.29z"/><path fill="#949899" d="m2203.264 1499.754 113.879-107.086c5.53-5.2 14.229-4.933 19.43.598l151.8 161.43c5.2 5.53 4.933 14.229-.598 19.43l-113.879 107.086c-5.53 5.2-14.229 4.933-19.43-.598l-151.8-161.43c-5.2-5.531-4.933-14.23.598-19.43z"/><path fill="#353640" d="M2364.482 1687.027a15.892 15.892 0 0 1-11.535-4.985l-151.8-161.43a15.73 15.73 0 0 1-4.291-11.331 15.729 15.729 0 0 1 4.979-11.046l113.879-107.086a15.773 15.773 0 0 1 10.842-4.298 15.89 15.89 0 0 1 11.535 4.986l151.8 161.429c5.979 6.359 5.671 16.397-.688 22.377l-113.879 107.086a15.768 15.768 0 0 1-10.842 4.298zm-37.926-296.006a11.609 11.609 0 0 0-7.984 3.166l-113.879 107.085c-4.685 4.405-4.912 11.799-.508 16.482l151.8 161.43a11.552 11.552 0 0 0 8.498 3.673c2.979 0 5.813-1.124 7.984-3.165l113.879-107.086c4.685-4.405 4.912-11.799.508-16.482l-151.8-161.43a11.556 11.556 0 0 0-8.498-3.673z"/><circle cx="2345.52" cy="1536.94" r="20.33" fill="#FFF"/><path fill="#FCCAC3" d="M2533.46 1403.09s-69.82 26.76-99.2 37.79c0 0-44.939 7.11-51.04 12.19-6.11 5.09-41.22 39.92-43.47 51.34s52.68-34.931 52.68-34.931-22.67 22.34-25.67 30.301c-2.99 7.949-4.66 32.06 2.19 33.41 6.86 1.35 9.239-27.601 9.239-27.601l20.961-18.41s-14.271 24.83-14.91 27.431c-.63 2.609-.61 27.17 5.05 27.93 5.67.76 7.021-24.13 7.021-24.13l15.379-17.25s-6.02 21.47-6.029 23.96c-.021 2.49 15.779 21.03 17.42 19.93 1.64-1.1-4.71-22.399-4.71-22.399l10.95-16.471s18.489-3.64 31.59-31.79l94.74-25.369c-.001 0 19.919-41.301-22.191-45.931z"/><path fill="#FD3E42" d="M2734.34 1338.99s-65.97-136.511-113.5-198.311c-47.54-61.8-108.279-81.83-136.109-35.76 0 0 2.409 32.44 21.149 71.47 18.729 39.03 106.729 169.5 106.729 169.5 41.74 65.74 64.871 75.38 80.221 71.48 0 .001 62.26-28.959 41.51-78.379z"/><path fill="#2A1D19" d="M2630.152 1373.875a2.08 2.08 0 0 1-1.653-.813c-.167-.216-1.014-1.341-2.185-3.309l-86.216-130.978a2.084 2.084 0 1 1 3.483-2.293l75.196 114.237c-2.994-12.594-3.726-30.044 4.087-51.173a2.085 2.085 0 1 1 3.912 1.447c-12.984 35.112-.864 59.954 3.561 67.288l1.555 2.362a2.084 2.084 0 0 1-1.74 3.232z"/><path fill="#FD3E42" d="m2612.61 1345.89-169.54 80.681 34.17 78.84 215.59-88.04c44.24-26.1 42.689-75.35 1.21-85.11-41.49-9.761-81.43 13.629-81.43 13.629z"/><path fill="#2A1D19" d="M2477.241 1507.496a2.087 2.087 0 0 1-1.914-1.257l-34.17-78.84a2.085 2.085 0 0 1 1.018-2.712l169.54-80.681c.056-.027.113-.051.172-.072.993-.368 24.603-8.983 46.085-6.263a2.086 2.086 0 0 1-.523 4.137c-19.878-2.516-42.486 5.45-44.032 6.006l-167.632 79.773 33.369 76.993a2.084 2.084 0 0 1-1.913 2.916zm-24.251-183.876s41.479 27.109 66.12-20.92c0 0-25.85 21.39-66.12 20.92z"/><path fill="#353640" d="M2582.61 1994.22c-6.96 221.24-14.88 455.79-14.88 455.79h-92.08l-44.9-444.899c.01-.061 11.4-69.53 77.75-70.681 66.391-1.16 74.11 59.79 74.11 59.79z"/><path fill="#2A1D19" d="M2527.038 2051.314a2.086 2.086 0 0 1-.446-4.121c39.241-8.647 44.386-42.166 44.434-42.504a2.082 2.082 0 0 1 2.354-1.774 2.083 2.083 0 0 1 1.774 2.354c-.051.366-5.627 36.732-47.666 45.996-.15.034-.301.049-.45.049z"/><path fill="#353640" d="m2361.16 2010.76-.01.05c-40.53 216.221-81.67 439.2-81.67 439.2h-101.66c11.87-120.319 23.27-290.729 35.06-457.72.061-.12 27.341-53.53 94.11-51.28 65.8 2.219 54.54 67.71 54.17 69.75z"/><path fill="#2A1D19" d="M2236.959 2094.896c-.302 0-.608-.066-.898-.205-28.406-13.589-27.698-50.245-27.654-51.799.033-1.151 1.012-2.091 2.142-2.024 1.15.031 2.058.99 2.026 2.141-.01.354-.653 35.513 25.285 47.921a2.083 2.083 0 0 1 .981 2.78 2.088 2.088 0 0 1-1.882 1.186z"/><path fill="#FFF" d="M2526.132 838.925c-.657 0-1.304-.31-1.71-.889-21.164-30.22-54.164-44.031-54.495-44.167a2.087 2.087 0 0 1-1.136-2.721 2.087 2.087 0 0 1 2.722-1.136c1.396.574 34.466 14.421 56.325 45.632a2.085 2.085 0 0 1-1.706 3.281zm14.068 23.031a2.085 2.085 0 0 1-1.962-2.791c.749-2.082 18.691-50.863 48.704-40.127a2.085 2.085 0 0 1-1.404 3.927c-26.111-9.347-43.207 37.143-43.376 37.613a2.09 2.09 0 0 1-1.962 1.378zm10.17 5.378a2.084 2.084 0 0 1-1.462-3.571c.749-.736 18.552-18 35.769-16.126a2.084 2.084 0 1 1-.453 4.145c-15.271-1.674-32.222 14.788-32.393 14.955a2.076 2.076 0 0 1-1.461.597zm34.336 25.96c-8.991 0-19.569-5.092-31.635-15.258-.535-.451-1.139-.959-1.339-1.102a2.085 2.085 0 0 1 1.964-3.677c.416.209.799.525 2.062 1.589 18.024 15.186 32.02 18.197 41.593 8.944a2.086 2.086 0 0 1 2.898 2.998c-4.488 4.339-9.679 6.506-15.543 6.506z"/><path fill="#FCCAC3" d="M2390.08 823.45s-31.58 73.91-34.45 115.529c-2.86 41.62.72 76.061 45.931 86.82 45.209 10.771 105.479-50.939 119.109-94 13.641-43.049-18.649-166.469-130.59-108.349z"/><path fill="#2A1D19" d="M2385.672 942.908c-4.733 0-10.37-.532-12.726-2.818-.974-.946-1.439-2.134-1.347-3.438.427-5.988 18.45-27.864 22.06-32.188a2.086 2.086 0 0 1 3.202 2.672c-10.199 12.222-20.88 26.715-21.101 29.812.544 1.382 8.068 2.317 16.591 1.457a2.091 2.091 0 0 1 2.283 1.866 2.086 2.086 0 0 1-1.865 2.284c-1.061.106-3.87.353-7.097.353zM2368.39 885.8s16.601-.859 23.92.43c7.33 1.28 4.21-7.25-9.27-8.039-13.48-.791-20.48 8.788-14.65 7.609zm70.36 12.59s-14.91-7.34-22.15-9.05c-7.239-1.7-1.01-8.31 11.69-3.72s15.351 16.151 10.46 12.77zm-51.194 68.377c-11.521 0-16.916-6.751-17.281-7.228a2.085 2.085 0 0 1 3.303-2.546c.538.683 13.103 15.872 43.747-6.964a2.085 2.085 0 1 1 2.492 3.343c-13.804 10.286-24.444 13.395-32.261 13.395z"/><path fill="#ED6056" d="M2390.532 974.304c-2.865 0-4.614-.548-4.746-.591a2.084 2.084 0 0 1 1.274-3.97c.108.032 4.828 1.406 11.538-1.224a2.086 2.086 0 0 1 1.521 3.883c-3.81 1.493-7.114 1.902-9.587 1.902z"/><path fill="#2A1D19" d="M2376.301 896.467a3.74 3.74 0 0 1 2.383 4.722l-2.667 8.124a3.74 3.74 0 0 1-4.718 2.391 3.741 3.741 0 0 1-2.384-4.722l2.667-8.124a3.742 3.742 0 0 1 4.719-2.391zm43.859 9.33a4.287 4.287 0 0 1 2.731 5.413l-3.058 9.312a4.285 4.285 0 0 1-5.408 2.739 4.285 4.285 0 0 1-2.73-5.412l3.057-9.312a4.288 4.288 0 0 1 5.408-2.74z"/><path fill="#FCCAC3" d="M2463.36 923.41s25.72-16.75 41.26-8.97c15.55 7.77 7.78 43.949-25.71 40.659s-15.55-31.689-15.55-31.689z"/><path fill="#2A1D19" d="M2471.288 943.275a2.085 2.085 0 0 1-1.683-3.314c.569-.781 14.15-19.144 30.445-18.635a2.084 2.084 0 0 1 2.023 2.145c-.034 1.15-1.027 2.057-2.145 2.023-6.428-.18-12.559 3.259-17.345 7.09l8.569.555a2.084 2.084 0 0 1 1.946 2.215 2.093 2.093 0 0 1-2.216 1.946l-12.655-.82c-3.232 3.201-5.205 5.871-5.255 5.939-.406.56-1.04.856-1.684.856z"/><path fill="#2A1D19" d="M2388.061 828.3c31.81-16.72 27.489 15.601 43.629 59.37 16.15 43.771 58.131 25.83 62.791 31.22 4.659 5.38-14.07 47.17-3.091 61.61 10.98 14.45 36.101-5.41 48.3-85.05 12.2-79.65-157.73-166.89-151.629-67.15z"/><path fill="#353640" d="M1350.439 875.635a2.086 2.086 0 0 1 0-4.17c108.701 0 197.136-88.435 197.136-197.135a2.086 2.086 0 0 1 4.17 0c0 111-90.305 201.305-201.306 201.305zm-109.251-32.599c-.393 0-.79-.111-1.143-.343-56.925-37.396-90.911-100.336-90.911-168.363 0-111 90.305-201.305 201.305-201.305a2.086 2.086 0 0 1 0 4.17c-108.701 0-197.135 88.435-197.135 197.135 0 66.618 33.282 128.254 89.03 164.877a2.084 2.084 0 0 1-1.146 3.829zm299.551-225.62c-.89 0-1.713-.574-1.99-1.468-17.13-55.251-57.442-100.025-110.602-122.841a2.085 2.085 0 0 1 1.644-3.832c54.283 23.299 95.448 69.02 112.939 125.438a2.085 2.085 0 0 1-1.991 2.703z"/><path fill="#353640" d="M1349.97 911.968c-52.831 0-103.82-17.507-146.06-50.597-49.961-39.138-81.69-95.389-89.341-158.39a2.084 2.084 0 1 1 4.139-.503c15.517 127.771 132.104 219.098 259.879 203.582a2.084 2.084 0 1 1 .503 4.139 241.453 241.453 0 0 1-29.12 1.769zm96.831-20.633a2.085 2.085 0 0 1-.854-3.988c62.487-28.006 109.368-81.783 128.622-147.543a2.086 2.086 0 0 1 4.002 1.172c-19.598 66.934-67.315 121.671-130.919 150.177a2.076 2.076 0 0 1-.851.182zm137.436-243.32a2.084 2.084 0 0 1-2.066-1.833c-15.527-127.771-132.111-219.097-259.879-203.581-78.309 9.516-146.011 57.444-181.103 128.206a2.086 2.086 0 0 1-3.735-1.852c35.718-72.024 104.629-120.807 184.336-130.493 63.006-7.65 125.217 9.69 175.177 48.828 49.959 39.137 81.688 95.388 89.344 158.39a2.084 2.084 0 0 1-2.074 2.335z"/><circle cx="1350.439" cy="622.03" r="65.55" fill="#FFE072"/><path fill="#2A1D19" d="M1350.439 670.105c-26.508 0-48.074-21.566-48.074-48.075s21.566-48.075 48.074-48.075c26.509 0 48.075 21.566 48.075 48.075s-21.566 48.075-48.075 48.075zm0-91.98c-24.209 0-43.904 19.696-43.904 43.905s19.695 43.905 43.904 43.905c24.209 0 43.905-19.696 43.905-43.905s-19.695-43.905-43.905-43.905z"/><path fill="#FD3E42" d="m1235.65 763.53 53.199-92.141c12.11 15.08 29.631 25.62 49.631 28.66l-53.19 92.13-9.78-40.38-39.86 11.731zm179.94 28.65-53.189-92.13c19.99-3.04 37.52-13.58 49.619-28.66l53.2 92.141-39.86-11.73-9.77 40.379z"/><path fill="#FFE072" d="M2324.939 603.771H2103.49c-13.11 0-23.83 10.72-23.83 23.829v51.86c0 13.1 10.72 23.83 23.83 23.83h196.859l48.41 40.64V627.601c.001-13.111-10.719-23.83-23.82-23.83z"/><path fill="#353640" d="M2348.76 746.015c-.481 0-.958-.167-1.341-.488l-50.488-42.392H2090c-15.012 0-27.225-12.213-27.225-27.225V621.2c0-15.012 12.213-27.226 27.225-27.226a2.086 2.086 0 0 1 0 4.17c-12.712 0-23.055 10.343-23.055 23.056v54.71c0 12.712 10.343 23.055 23.055 23.055h207.689c.49 0 .965.173 1.341.488l47.645 40.003V621.2c0-12.713-10.338-23.056-23.045-23.056a2.086 2.086 0 0 1 0-4.17c15.006 0 27.215 12.213 27.215 27.226v122.73a2.086 2.086 0 0 1-2.085 2.085z"/><path fill="#353640" d="M2313.03 628.635H2115.4a2.086 2.086 0 0 1 0-4.17h197.63a2.086 2.086 0 0 1 0 4.17zm0 26.98H2115.4a2.086 2.086 0 0 1 0-4.17h197.63a2.086 2.086 0 0 1 0 4.17zm0 26.98h-153.48a2.086 2.086 0 0 1 0-4.17h153.48a2.086 2.086 0 0 1 0 4.17z"/><path fill="#FBCC7C" d="M721.54 729.19h182.82v119.05H721.54z"/><path fill="#E8A860" d="M904.36 729.19h92.529v119.05H904.36z"/><path fill="#FFE072" d="M721.54 692.521h182.82v36.67H721.54z"/><path fill="#F7BD7B" d="M904.36 692.521h92.529v36.67H904.36z"/><path fill="#2A1D19" d="M996.89 731.265H721.54a2.086 2.086 0 0 1 0-4.17h275.35a2.086 2.086 0 0 1 0 4.17z"/><path fill="#FF845E" d="M794.561 692.521h36.789v64.8h-36.789z"/><path fill="#2A1D19" d="M904.36 692.521v155.72c0-.001 12.27-78.861 0-155.72z"/><path fill="#FBCC7C" d="M741.08 605.88h133.05v86.641H741.08z"/><path fill="#E8A860" d="M874.13 605.88h67.34v86.641h-67.34z"/><path fill="#FFE072" d="M741.08 579.19h133.05v26.68H741.08z"/><path fill="#F7BD7B" d="M874.13 579.19h67.34v26.68h-67.34z"/><path fill="#2A1D19" d="M941.47 607.965H741.08a2.086 2.086 0 0 1 0-4.17h200.39a2.086 2.086 0 0 1 0 4.17z"/><path fill="#FF845E" d="M794.22 579.19h26.771v47.159H794.22z"/><path fill="#2A1D19" d="M874.13 579.19v113.33c0 .001 8.931-57.39 0-113.33z"/><circle cx="982.72" cy="654.09" r="58.88" fill="#A5C250"/><path fill="#FFF" d="M972.89 676.875a3.122 3.122 0 0 1-2.21-.916l-19.659-19.66a3.125 3.125 0 0 1 4.419-4.419l17.449 17.45L1010 632.22a3.125 3.125 0 0 1 4.419 4.419l-39.32 39.321a3.125 3.125 0 0 1-2.209.915z"/><path fill="#353640" d="M1724.387 590.451c-13.799 0-27.713-4.227-39.661-13-23.017-16.892-32.862-46.567-24.499-73.843a2.083 2.083 0 0 1 2.604-1.382 2.084 2.084 0 0 1 1.382 2.604c-7.844 25.582 1.392 53.415 22.98 69.258 28.003 20.562 67.517 14.499 88.086-13.514 6.347-8.646 10.4-18.8 11.722-29.365a2.086 2.086 0 0 1 4.139.518c-1.41 11.268-5.732 22.097-12.499 31.315-13.154 17.915-33.575 27.409-54.254 27.409zm-52.389-103.596a2.084 2.084 0 0 1-1.678-3.319c21.918-29.865 64.05-36.328 93.914-14.408a2.084 2.084 0 1 1-2.467 3.362c-28.014-20.561-67.527-14.496-88.086 13.514a2.081 2.081 0 0 1-1.683.851z"/><path fill="#FFE072" d="M1724.48 572.51c27.18 0 49.209-22.04 49.209-49.22s-22.029-49.21-49.209-49.21c-27.181 0-49.221 22.03-49.221 49.21s22.041 49.22 49.221 49.22z"/><path fill="#FFF" d="M1720.33 550.42c-2.73-.25-5.391-.78-7.99-1.57-3.811-1.159-6.83-2.699-9.061-4.62l3.41-7.67c2.181 1.721 4.851 3.131 8.011 4.211 3.159 1.09 6.329 1.64 9.51 1.64 3.95 0 6.89-.64 8.84-1.9 1.95-1.27 2.92-2.93 2.92-5.01 0-1.51-.54-2.76-1.63-3.75s-2.47-1.76-4.13-2.31c-1.67-.561-3.95-1.19-6.83-1.9-4.04-.96-7.319-1.92-9.819-2.88s-4.65-2.47-6.45-4.51c-1.79-2.051-2.69-4.82-2.69-8.311 0-2.93.801-5.6 2.391-8 1.59-2.399 3.99-4.31 7.199-5.729 1.87-.82 3.971-1.4 6.32-1.75v-9.801h8.3v9.53c2.271.17 4.511.54 6.73 1.11 3.14.81 5.84 1.979 8.12 3.49l-3.11 7.659a31.052 31.052 0 0 0-7.28-3.109c-2.529-.7-4.979-1.061-7.359-1.061-3.891 0-6.791.66-8.681 1.971-1.899 1.319-2.85 3.06-2.85 5.239 0 1.511.55 2.75 1.63 3.71 1.09.96 2.47 1.721 4.141 2.28 1.67.55 3.939 1.19 6.819 1.891 3.95.909 7.181 1.859 9.71 2.85 2.53.979 4.689 2.49 6.48 4.51 1.8 2.021 2.699 4.75 2.699 8.19 0 2.93-.8 5.59-2.39 7.96-1.59 2.38-4.011 4.279-7.25 5.689-2.15.95-4.63 1.58-7.41 1.891v9.67h-8.3v-9.61z"/><path fill="#353640" d="M2790.59 2563.295H209.41a2.086 2.086 0 0 1 0-4.17h2581.18a2.086 2.086 0 0 1 0 4.17z"/><path fill="#FFE072" d="M2103.86 1651.93c0 31.28-12.12 57.9-29.05 67.851 16.93 9.949 29.05 36.569 29.05 67.859h-87.53c0-31.29 12.12-57.91 29.05-67.859-16.93-9.95-29.05-36.57-29.05-67.851h87.53z"/><path fill="#2B2A29" d="M2095.85 1781.975h-71.5a2.082 2.082 0 0 1-2.08-2.229c.797-11.457 3.365-22.445 7.43-31.777a2.085 2.085 0 0 1 3.823 1.664c-3.613 8.298-5.989 17.996-6.914 28.173h66.982c-.924-10.185-3.303-19.882-6.922-28.171a2.085 2.085 0 0 1 3.822-1.668c4.07 9.323 6.643 20.313 7.438 31.779a2.084 2.084 0 0 1-2.079 2.229zm-28.78-60.11a2.086 2.086 0 0 1-2.085-2.085c0-3.562 1.765-6.65 4.843-8.475 8.806-5.173 14.33-15.614 16.84-21.378a2.084 2.084 0 1 1 3.823 1.664c-2.712 6.229-8.728 17.539-18.545 23.306-1.797 1.065-2.791 2.801-2.791 4.883a2.084 2.084 0 0 1-2.085 2.085zm-35.459-29.019a2.084 2.084 0 0 1-1.912-1.254c-4.064-9.331-6.633-20.319-7.43-31.777a2.084 2.084 0 0 1 2.08-2.229h71.5a2.086 2.086 0 0 1 0 4.17h-69.241c.925 10.178 3.301 19.876 6.913 28.173a2.082 2.082 0 0 1-1.91 2.917z"/><path fill="#2A1D19" d="M2103.859 1809.975h-87.52c-5.754 0-10.435-4.681-10.435-10.435v-3.561c0-5.754 4.681-10.435 10.435-10.435h87.52c5.754 0 10.436 4.681 10.436 10.435v3.561c0 5.754-4.682 10.435-10.436 10.435zm-87.519-20.26a6.273 6.273 0 0 0-6.265 6.265v3.561a6.273 6.273 0 0 0 6.265 6.265h87.52a6.273 6.273 0 0 0 6.266-6.265v-3.561a6.273 6.273 0 0 0-6.266-6.265h-87.52zm87.519-135.71h-87.52c-5.754 0-10.435-4.681-10.435-10.435v-3.561c0-5.754 4.681-10.435 10.435-10.435h87.52c5.754 0 10.436 4.681 10.436 10.435v3.561c0 5.754-4.682 10.435-10.436 10.435zm-87.519-20.26a6.273 6.273 0 0 0-6.265 6.265v3.561a6.273 6.273 0 0 0 6.265 6.265h87.52a6.273 6.273 0 0 0 6.266-6.265v-3.561a6.273 6.273 0 0 0-6.266-6.265h-87.52z"/><path fill="#353640" d="M2060.186 1857.793c-17.47 0-34.923-3.334-51.279-9.866-34.227-13.671-61.08-39.854-75.614-73.727s-15.01-71.376-1.338-105.604c21.748-54.451 75.709-89.286 134.237-86.71a2.085 2.085 0 0 1 1.991 2.175c-.052 1.151-1.026 2.021-2.175 1.991-56.765-2.488-109.09 31.285-130.181 84.091-13.259 33.193-12.799 69.564 1.297 102.412 14.095 32.849 40.137 58.24 73.329 71.498 21.146 8.444 44.183 11.382 66.62 8.488a2.09 2.09 0 0 1 2.335 1.802 2.086 2.086 0 0 1-1.802 2.335 136.317 136.317 0 0 1-17.42 1.115zm126.113-85.507a2.086 2.086 0 0 1-1.935-2.859c27.375-68.521-6.103-146.54-74.627-173.92a2.086 2.086 0 0 1-1.163-2.71 2.089 2.089 0 0 1 2.71-1.163c70.66 28.233 105.181 108.685 76.953 179.34a2.09 2.09 0 0 1-1.938 1.312z"/></svg>